{"glyphs":{"0":{"ha":778,"x_min":58,"x_max":721,"o":"m 526 710 l 526 219 l 471 163 l 307 163 l 251 219 l 251 710 l 307 763 l 475 763 l 526 710 m 443 685 l 332 685 l 332 243 l 443 243 l 443 685 m 721 763 l 721 163 l 556 0 l 219 0 l 58 163 l 58 763 l 219 926 l 563 926 l 721 763 m 639 731 l 528 847 l 257 847 l 139 731 l 139 199 l 257 81 l 518 81 l 639 199 l 639 731 z "},"1":{"ha":778,"x_min":182,"x_max":615,"o":"m 550 926 l 550 243 l 615 243 l 615 0 l 192 0 l 192 243 l 264 243 l 264 665 l 182 665 l 182 819 l 289 926 l 550 926 m 460 847 l 329 847 l 264 783 l 264 747 l 347 747 l 347 163 l 275 163 l 275 81 l 533 81 l 533 163 l 460 163 l 460 847 z "},"2":{"ha":778,"x_min":58,"x_max":719,"o":"m 719 763 l 719 493 l 440 243 l 719 243 l 719 0 l 58 0 l 58 243 l 446 590 l 446 685 l 335 685 l 335 572 l 58 572 l 58 763 l 222 926 l 560 926 l 719 763 m 638 729 l 524 847 l 260 847 l 142 729 l 142 651 l 251 651 l 251 708 l 307 763 l 475 763 l 529 708 l 529 554 l 142 208 l 142 81 l 638 81 l 638 163 l 229 163 l 638 529 l 638 729 z "},"3":{"ha":778,"x_min":57,"x_max":721,"o":"m 721 763 l 721 551 l 679 508 l 721 468 l 721 163 l 557 0 l 218 0 l 57 163 l 57 382 l 332 382 l 332 243 l 443 243 l 443 397 l 360 397 l 360 608 l 443 608 l 443 692 l 332 692 l 332 608 l 75 608 l 75 778 l 222 926 l 557 926 l 721 763 m 638 729 l 522 847 l 256 847 l 160 747 l 160 679 l 250 679 l 250 718 l 296 763 l 472 763 l 528 708 l 528 582 l 496 551 l 429 551 l 429 468 l 496 468 l 528 436 l 528 215 l 472 163 l 301 163 l 250 215 l 250 311 l 140 311 l 140 196 l 256 81 l 522 81 l 638 196 l 638 451 l 578 511 l 638 572 l 638 729 z "},"4":{"ha":778,"x_min":-3,"x_max":735,"o":"m 432 767 l 432 438 l 169 438 l 418 767 l 432 767 m 368 593 l 299 501 l 368 501 l 368 593 m 626 926 l 626 501 l 735 501 l 735 289 l 618 289 l 618 243 l 685 243 l 685 0 l 282 0 l 282 243 l 363 243 l 363 289 l -3 289 l -3 468 l 343 926 l 626 926 m 542 847 l 372 847 l 79 458 l 79 360 l 431 360 l 431 168 l 363 168 l 363 81 l 604 81 l 604 168 l 542 168 l 542 360 l 661 360 l 661 432 l 542 432 l 542 847 z "},"5":{"ha":778,"x_min":58,"x_max":721,"o":"m 685 926 l 685 692 l 344 692 l 344 625 l 585 625 l 721 488 l 721 163 l 557 0 l 219 0 l 58 163 l 58 369 l 333 369 l 333 243 l 444 243 l 444 417 l 76 417 l 76 926 l 685 926 m 600 847 l 160 847 l 160 493 l 472 493 l 529 433 l 529 218 l 472 163 l 303 163 l 251 218 l 251 299 l 140 299 l 140 196 l 251 81 l 522 81 l 639 196 l 639 454 l 529 563 l 263 563 l 263 763 l 600 763 l 600 847 z "},"6":{"ha":778,"x_min":58,"x_max":719,"o":"m 526 422 l 526 218 l 471 163 l 306 163 l 250 218 l 250 450 l 501 450 l 526 422 m 444 376 l 332 376 l 332 243 l 444 243 l 444 376 m 719 475 l 719 163 l 554 0 l 221 0 l 58 167 l 58 768 l 221 926 l 563 926 l 713 774 l 713 633 l 444 633 l 444 685 l 332 685 l 332 597 l 600 597 l 719 475 m 639 443 l 558 525 l 250 525 l 250 711 l 304 763 l 476 763 l 526 711 l 526 699 l 639 699 l 639 733 l 526 847 l 258 847 l 140 733 l 140 199 l 258 81 l 519 81 l 639 199 l 639 443 z "},"7":{"ha":778,"x_min":88,"x_max":690,"o":"m 690 926 l 690 718 l 368 0 l 96 0 l 403 685 l 325 685 l 325 639 l 88 639 l 88 926 l 690 926 m 608 847 l 169 847 l 169 718 l 253 718 l 253 763 l 524 763 l 218 81 l 314 81 l 608 738 l 608 847 z "},"8":{"ha":778,"x_min":57,"x_max":721,"o":"m 528 436 l 528 219 l 472 163 l 300 163 l 250 215 l 250 436 l 281 468 l 496 468 l 528 436 m 444 394 l 333 394 l 333 243 l 444 243 l 444 394 m 517 719 l 517 572 l 492 543 l 292 543 l 260 572 l 260 719 l 304 763 l 474 763 l 517 719 m 431 692 l 347 692 l 347 606 l 431 606 l 431 692 m 721 451 l 721 163 l 558 0 l 218 0 l 57 163 l 57 451 l 121 517 l 83 554 l 83 790 l 218 926 l 558 926 l 693 790 l 693 554 l 656 517 l 721 451 m 558 517 l 610 572 l 610 756 l 521 847 l 260 847 l 165 756 l 165 572 l 224 513 l 142 426 l 142 196 l 260 81 l 521 81 l 639 196 l 639 436 l 558 517 z "},"9":{"ha":778,"x_min":57,"x_max":719,"o":"m 528 711 l 528 525 l 282 525 l 251 556 l 251 711 l 303 763 l 476 763 l 528 711 m 446 685 l 332 685 l 332 597 l 446 597 l 446 685 m 719 763 l 719 163 l 557 0 l 221 0 l 67 157 l 67 326 l 332 326 l 332 243 l 446 243 l 446 376 l 182 376 l 57 501 l 57 763 l 221 926 l 561 926 l 719 763 m 639 732 l 528 847 l 258 847 l 140 732 l 140 535 l 226 450 l 528 450 l 528 218 l 472 163 l 306 163 l 251 218 l 251 256 l 140 256 l 140 199 l 258 81 l 518 81 l 639 199 l 639 732 z "}," ":{"ha":347,"x_min":0,"x_max":0,"o":""},"!":{"ha":450,"x_min":60,"x_max":389,"o":"m 389 926 l 328 288 l 119 288 l 60 926 l 389 926 m 304 847 l 146 847 l 192 357 l 256 357 l 304 847 m 351 243 l 351 0 l 94 0 l 94 243 l 351 243 m 279 176 l 167 176 l 167 65 l 279 65 l 279 176 z "},"\"":{"ha":617,"x_min":58,"x_max":560,"o":"m 293 926 l 238 606 l 113 606 l 58 926 l 293 926 m 213 865 l 138 865 l 158 667 l 192 667 l 213 865 m 560 926 l 504 606 l 379 606 l 325 926 l 560 926 m 479 865 l 404 865 l 425 667 l 458 667 l 479 865 z "},"#":{"ha":847,"x_min":53,"x_max":793,"o":"m 383 578 l 493 578 l 463 358 l 353 358 l 383 578 m 251 924 l 722 924 l 699 753 l 793 753 l 757 499 l 663 499 l 654 436 l 749 436 l 713 183 l 618 183 l 593 1 l 122 1 l 147 183 l 53 183 l 89 436 l 183 436 l 192 499 l 97 499 l 133 753 l 228 753 l 251 924 m 397 674 l 421 844 l 319 844 l 294 674 l 200 674 l 188 578 l 282 578 l 250 358 l 156 358 l 143 263 l 238 263 l 211 81 l 314 81 l 339 263 l 449 263 l 424 81 l 525 81 l 551 263 l 646 263 l 658 358 l 564 358 l 596 578 l 690 578 l 703 674 l 608 674 l 633 844 l 528 844 l 503 674 l 397 674 z "},"$":{"ha":778,"x_min":57,"x_max":719,"o":"m 706 782 l 706 631 l 449 631 l 449 681 l 329 681 l 329 597 l 600 597 l 719 475 l 719 163 l 553 0 l 488 0 l 488 -76 l 293 -76 l 293 0 l 219 0 l 64 163 l 64 326 l 329 326 l 329 243 l 443 243 l 443 376 l 181 376 l 57 504 l 57 768 l 219 926 l 293 926 l 293 1008 l 488 1008 l 488 926 l 561 926 l 706 782 m 636 733 l 525 847 l 422 847 l 422 940 l 358 940 l 358 847 l 256 847 l 140 733 l 140 536 l 224 450 l 496 450 l 525 417 l 525 219 l 471 163 l 304 163 l 250 219 l 250 257 l 140 257 l 140 199 l 256 81 l 358 81 l 358 -11 l 422 -11 l 422 81 l 518 81 l 636 199 l 636 444 l 560 524 l 281 524 l 250 554 l 250 713 l 304 763 l 478 763 l 525 713 l 525 699 l 636 699 l 636 733 z "},"%":{"ha":1115,"x_min":60,"x_max":1054,"o":"m 935 307 l 935 147 l 894 108 l 815 108 l 778 147 l 778 313 l 815 349 l 894 349 l 935 307 m 874 294 l 838 294 l 838 163 l 874 163 l 874 294 m 1054 344 l 1054 108 l 943 0 l 765 0 l 658 108 l 658 353 l 765 457 l 943 457 l 1054 344 m 981 321 l 917 386 l 789 386 l 732 329 l 732 136 l 796 71 l 917 71 l 981 132 l 981 321 m 1026 926 l 317 0 l 85 0 l 794 926 l 1026 926 m 893 868 l 833 868 l 219 65 l 279 65 l 893 868 m 335 785 l 335 615 l 300 581 l 211 581 l 178 615 l 178 785 l 217 821 l 300 821 l 335 785 m 275 763 l 239 763 l 239 636 l 275 636 l 275 763 m 456 821 l 456 581 l 350 472 l 169 472 l 60 581 l 60 821 l 169 926 l 350 926 l 456 821 m 383 797 l 322 858 l 196 858 l 133 797 l 133 607 l 196 543 l 322 543 l 383 603 l 383 797 z "},"&":{"ha":760,"x_min":38,"x_max":719,"o":"m 489 451 l 489 163 l 288 163 l 229 224 l 229 399 l 282 451 l 489 451 m 414 381 l 314 381 l 314 243 l 414 243 l 414 381 m 719 593 l 719 379 l 656 379 l 656 0 l 203 0 l 38 167 l 38 442 l 86 489 l 56 522 l 56 783 l 203 926 l 479 926 l 479 685 l 314 685 l 314 593 l 414 593 l 414 647 l 647 647 l 647 593 l 719 593 m 636 526 l 572 526 l 572 572 l 489 572 l 489 526 l 288 526 l 240 572 l 240 717 l 288 763 l 396 763 l 396 847 l 240 847 l 138 747 l 138 556 l 203 490 l 121 408 l 121 199 l 240 81 l 572 81 l 572 451 l 636 451 l 636 526 z "},"'":{"ha":378,"x_min":58,"x_max":321,"o":"m 321 926 l 251 606 l 126 606 l 58 926 l 321 926 m 240 865 l 138 865 l 172 667 l 206 667 l 240 865 z "},"(":{"ha":531,"x_min":88,"x_max":493,"o":"m 493 1069 l 493 828 l 365 828 l 365 99 l 493 99 l 493 -143 l 250 -143 l 88 21 l 88 908 l 250 1069 l 493 1069 m 410 993 l 289 993 l 169 875 l 169 57 l 289 -64 l 410 -64 l 410 21 l 336 21 l 282 76 l 282 854 l 336 908 l 410 908 l 410 993 z "},")":{"ha":531,"x_min":38,"x_max":443,"o":"m 38 1069 l 281 1069 l 443 908 l 443 21 l 281 -143 l 38 -143 l 38 99 l 165 99 l 165 828 l 38 828 l 38 1069 m 121 993 l 121 908 l 194 908 l 249 854 l 249 76 l 194 21 l 121 21 l 121 -64 l 242 -64 l 361 57 l 361 875 l 242 993 l 121 993 z "},"*":{"ha":778,"x_min":200,"x_max":579,"o":"m 325 839 l 325 926 l 456 926 l 456 839 l 539 867 l 579 742 l 496 715 l 547 643 l 442 567 l 390 638 l 339 567 l 233 643 l 285 714 l 200 742 l 242 865 l 325 839 m 363 788 l 294 810 l 278 756 l 344 733 l 303 676 l 349 643 l 390 701 l 432 644 l 478 676 l 436 735 l 503 756 l 485 810 l 418 788 l 418 858 l 363 858 l 363 788 z "},"+":{"ha":778,"x_min":49,"x_max":728,"o":"m 510 597 l 728 597 l 728 356 l 510 356 l 510 146 l 268 146 l 268 356 l 49 356 l 49 597 l 268 597 l 268 807 l 510 807 l 510 597 m 429 517 l 429 726 l 349 726 l 349 517 l 129 517 l 129 436 l 349 436 l 349 226 l 429 226 l 429 436 l 647 436 l 647 517 l 429 517 z "},",":{"ha":438,"x_min":88,"x_max":378,"o":"m 378 244 l 275 -151 l 88 -151 l 88 244 l 378 244 m 281 171 l 160 171 l 160 -81 l 219 -81 l 281 171 z "},"-":{"ha":338,"x_min":0,"x_max":338,"o":"m 338 581 l 338 342 l 0 342 l 0 581 l 338 581 m 264 510 l 72 510 l 72 415 l 264 415 l 264 510 z "},".":{"ha":396,"x_min":69,"x_max":326,"o":"m 326 244 l 326 0 l 69 0 l 69 244 l 326 244 m 254 179 l 143 179 l 143 67 l 254 67 l 254 179 z "},"/":{"ha":694,"x_min":-37,"x_max":732,"o":"m 732 1069 l 175 -143 l -37 -143 l 521 1069 l 732 1069 m 633 1004 l 561 1004 l 65 -75 l 138 -75 l 633 1004 z "},":":{"ha":396,"x_min":69,"x_max":326,"o":"m 326 244 l 326 0 l 69 0 l 69 244 l 326 244 m 254 179 l 143 179 l 143 67 l 254 67 l 254 179 m 326 604 l 326 358 l 69 358 l 69 604 l 326 604 m 254 539 l 143 539 l 143 426 l 254 426 l 254 539 z "},";":{"ha":396,"x_min":74,"x_max":364,"o":"m 339 604 l 339 358 l 82 358 l 82 604 l 339 604 m 267 539 l 156 539 l 156 426 l 267 426 l 267 539 m 364 244 l 261 -151 l 74 -151 l 74 244 l 364 244 m 267 171 l 146 171 l 146 -81 l 206 -81 l 267 171 z "},"=":{"ha":778,"x_min":49,"x_max":728,"o":"m 728 444 l 728 231 l 49 231 l 49 444 l 728 444 m 656 378 l 121 378 l 121 297 l 656 297 l 656 378 m 728 722 l 728 508 l 49 508 l 49 722 l 728 722 m 656 656 l 121 656 l 121 575 l 656 575 l 656 656 z "},"?":{"ha":700,"x_min":51,"x_max":658,"o":"m 658 763 l 658 508 l 497 347 l 432 347 l 432 285 l 169 285 l 169 489 l 261 579 l 401 579 l 401 685 l 308 685 l 308 611 l 51 611 l 51 783 l 199 926 l 497 926 l 658 763 m 575 726 l 458 847 l 232 847 l 133 749 l 133 679 l 226 679 l 226 707 l 279 763 l 432 763 l 483 707 l 483 556 l 432 504 l 301 504 l 251 454 l 251 356 l 344 356 l 344 403 l 364 421 l 458 421 l 575 538 l 575 726 m 432 244 l 432 0 l 169 0 l 169 244 l 432 244 m 354 176 l 243 176 l 243 65 l 354 65 l 354 176 z "},"@":{"ha":968,"x_min":51,"x_max":917,"o":"m 594 582 l 594 344 l 567 317 l 396 317 l 374 354 l 374 578 l 401 610 l 567 610 l 594 582 m 514 529 l 454 529 l 454 397 l 514 397 l 514 529 m 757 160 l 757 0 l 235 0 l 51 281 l 51 765 l 242 926 l 726 926 l 917 765 l 917 289 l 731 160 l 757 160 m 676 160 l 325 160 l 213 332 l 213 694 l 294 765 l 672 765 l 756 692 l 756 372 l 675 317 l 675 685 l 622 685 l 594 657 l 574 685 l 351 685 l 293 617 l 293 310 l 347 240 l 569 240 l 594 268 l 622 240 l 706 240 l 836 331 l 836 728 l 697 846 l 272 846 l 132 728 l 132 304 l 278 81 l 676 81 l 676 160 z "},"A":{"ha":886,"x_min":14,"x_max":872,"o":"m 449 763 l 556 418 l 321 418 l 433 763 l 449 763 m 440 576 l 408 481 l 471 481 l 440 576 m 579 926 l 789 243 l 872 243 l 872 0 l 483 0 l 483 233 l 543 233 l 526 286 l 350 286 l 333 233 l 390 233 l 390 0 l 14 0 l 14 243 l 90 243 l 317 926 l 579 926 m 517 847 l 375 847 l 150 163 l 97 163 l 97 81 l 304 81 l 304 163 l 236 163 l 296 346 l 579 346 l 636 163 l 571 163 l 571 81 l 789 81 l 789 163 l 732 163 l 517 847 z "},"B":{"ha":854,"x_min":74,"x_max":803,"o":"m 557 763 l 608 710 l 608 563 l 560 513 l 332 513 l 332 763 l 557 763 m 525 685 l 415 685 l 415 593 l 525 593 l 525 685 m 554 431 l 608 376 l 608 221 l 550 163 l 332 163 l 332 431 l 554 431 m 525 353 l 415 353 l 415 243 l 525 243 l 525 353 m 803 763 l 803 522 l 760 476 l 803 431 l 803 164 l 635 0 l 74 0 l 74 243 l 139 243 l 139 685 l 74 685 l 74 926 l 644 926 l 803 763 m 719 719 l 594 847 l 158 847 l 158 763 l 221 763 l 221 165 l 156 165 l 156 81 l 588 81 l 718 210 l 718 400 l 646 474 l 719 547 l 719 719 z "},"C":{"ha":757,"x_min":51,"x_max":706,"o":"m 706 382 l 706 163 l 538 0 l 214 0 l 51 167 l 51 769 l 214 926 l 547 926 l 706 763 l 706 564 l 449 564 l 449 685 l 328 685 l 328 247 l 449 247 l 449 382 l 706 382 m 624 303 l 531 303 l 531 219 l 475 163 l 300 163 l 244 219 l 244 713 l 300 763 l 481 763 l 531 713 l 531 643 l 624 643 l 624 732 l 511 847 l 251 847 l 135 732 l 135 203 l 251 81 l 500 81 l 624 203 l 624 303 z "},"D":{"ha":853,"x_min":74,"x_max":801,"o":"m 608 706 l 608 214 l 557 163 l 331 163 l 331 763 l 553 763 l 608 706 m 525 685 l 414 685 l 414 243 l 525 243 l 525 685 m 801 763 l 801 163 l 642 0 l 74 0 l 74 243 l 139 243 l 139 685 l 74 685 l 74 926 l 642 926 l 801 763 m 719 729 l 604 847 l 165 847 l 165 763 l 221 763 l 221 163 l 165 163 l 165 81 l 604 81 l 719 193 l 719 729 z "},"E":{"ha":835,"x_min":74,"x_max":783,"o":"m 783 926 l 783 629 l 535 629 l 535 685 l 415 685 l 415 586 l 635 586 l 635 350 l 415 350 l 415 243 l 535 243 l 535 310 l 783 310 l 783 0 l 74 0 l 74 243 l 138 243 l 138 685 l 74 685 l 74 926 l 783 926 m 700 847 l 157 847 l 157 763 l 221 763 l 221 163 l 157 163 l 157 81 l 700 81 l 700 228 l 617 228 l 617 163 l 331 163 l 331 432 l 553 432 l 553 507 l 331 507 l 331 763 l 617 763 l 617 708 l 700 708 l 700 847 z "},"F":{"ha":790,"x_min":74,"x_max":767,"o":"m 767 926 l 767 619 l 518 619 l 518 685 l 414 685 l 414 568 l 621 568 l 621 333 l 414 333 l 414 243 l 476 243 l 476 0 l 74 0 l 74 243 l 138 243 l 138 685 l 74 685 l 74 926 l 767 926 m 688 847 l 156 847 l 156 763 l 219 763 l 219 163 l 156 163 l 156 81 l 394 81 l 394 163 l 331 163 l 331 413 l 540 413 l 540 489 l 331 489 l 331 763 l 600 763 l 600 699 l 688 699 l 688 847 z "},"G":{"ha":775,"x_min":51,"x_max":715,"o":"m 715 550 l 715 0 l 215 0 l 51 163 l 51 763 l 215 926 l 556 926 l 715 767 l 715 606 l 456 606 l 456 685 l 328 685 l 328 243 l 456 243 l 456 326 l 413 326 l 413 550 l 715 550 m 631 471 l 486 471 l 486 403 l 539 403 l 539 163 l 300 163 l 246 218 l 246 710 l 300 763 l 486 763 l 539 710 l 539 685 l 631 685 l 631 732 l 515 847 l 251 847 l 135 732 l 135 197 l 251 81 l 631 81 l 631 471 z "},"H":{"ha":940,"x_min":74,"x_max":865,"o":"m 865 926 l 865 685 l 800 685 l 800 243 l 865 243 l 865 0 l 489 0 l 489 235 l 535 235 l 535 346 l 406 346 l 406 235 l 450 235 l 450 0 l 74 0 l 74 243 l 138 243 l 138 685 l 74 685 l 74 926 l 450 926 l 450 694 l 406 694 l 406 596 l 535 596 l 535 694 l 489 694 l 489 926 l 865 926 m 783 847 l 571 847 l 571 763 l 607 763 l 607 517 l 332 517 l 332 763 l 367 763 l 367 847 l 167 847 l 167 763 l 219 763 l 219 164 l 167 164 l 167 81 l 367 81 l 367 164 l 332 164 l 332 432 l 607 432 l 607 164 l 571 164 l 571 81 l 783 81 l 783 164 l 719 164 l 719 763 l 783 763 l 783 847 z "},"I":{"ha":553,"x_min":74,"x_max":478,"o":"m 478 926 l 478 685 l 414 685 l 414 243 l 478 243 l 478 0 l 74 0 l 74 243 l 138 243 l 138 685 l 74 685 l 74 926 l 478 926 m 396 847 l 157 847 l 157 763 l 219 763 l 219 163 l 157 163 l 157 81 l 396 81 l 396 163 l 332 163 l 332 763 l 396 763 l 396 847 z "},"J":{"ha":690,"x_min":0,"x_max":644,"o":"m 644 926 l 644 685 l 581 685 l 581 163 l 415 0 l 158 0 l 0 163 l 0 390 l 247 390 l 247 243 l 304 243 l 304 685 l 221 685 l 221 926 l 644 926 m 561 847 l 304 847 l 304 763 l 386 763 l 386 218 l 331 163 l 221 163 l 165 218 l 165 311 l 83 311 l 83 194 l 196 81 l 381 81 l 499 194 l 499 763 l 561 763 l 561 847 z "},"K":{"ha":924,"x_min":74,"x_max":900,"o":"m 883 926 l 883 685 l 786 685 l 665 551 l 804 243 l 900 243 l 900 0 l 499 0 l 499 236 l 550 236 l 494 361 l 408 271 l 408 236 l 460 236 l 460 0 l 74 0 l 74 243 l 139 243 l 139 685 l 74 685 l 74 926 l 456 926 l 456 701 l 401 701 l 401 581 l 513 701 l 494 701 l 494 926 l 883 926 m 810 847 l 576 847 l 576 763 l 657 763 l 331 406 l 331 763 l 388 763 l 388 847 l 156 847 l 156 763 l 222 763 l 222 163 l 156 163 l 156 81 l 388 81 l 388 163 l 331 163 l 331 297 l 510 493 l 657 163 l 582 163 l 582 81 l 817 81 l 817 163 l 754 163 l 576 564 l 758 767 l 810 767 l 810 847 z "},"L":{"ha":800,"x_min":74,"x_max":763,"o":"m 489 926 l 489 685 l 413 685 l 413 243 l 515 243 l 515 392 l 763 392 l 763 0 l 74 0 l 74 243 l 138 243 l 138 685 l 74 685 l 74 926 l 489 926 m 407 847 l 157 847 l 157 763 l 221 763 l 221 163 l 157 163 l 157 81 l 681 81 l 681 313 l 597 313 l 597 163 l 331 163 l 331 763 l 407 763 l 407 847 z "},"M":{"ha":1114,"x_min":74,"x_max":1039,"o":"m 1039 926 l 1039 685 l 975 685 l 975 243 l 1039 243 l 1039 0 l 654 0 l 654 243 l 718 243 l 718 463 l 618 292 l 494 292 l 392 463 l 392 243 l 460 243 l 460 0 l 74 0 l 74 243 l 139 243 l 139 685 l 74 685 l 74 926 l 392 926 l 556 642 l 724 926 l 1039 926 m 957 847 l 765 847 l 557 497 l 354 847 l 156 847 l 156 763 l 219 763 l 219 163 l 156 163 l 156 81 l 378 81 l 378 163 l 313 163 l 313 751 l 532 374 l 581 374 l 800 746 l 800 163 l 736 163 l 736 81 l 957 81 l 957 163 l 894 163 l 894 763 l 957 763 l 957 847 z "},"N":{"ha":982,"x_min":74,"x_max":931,"o":"m 931 926 l 931 685 l 867 685 l 867 0 l 624 0 l 374 464 l 374 238 l 447 238 l 447 0 l 74 0 l 74 243 l 139 243 l 139 685 l 74 685 l 74 926 l 410 926 l 632 510 l 632 694 l 567 694 l 567 926 l 931 926 m 849 847 l 643 847 l 643 763 l 700 763 l 700 238 l 358 847 l 157 847 l 157 763 l 222 763 l 222 163 l 157 163 l 157 81 l 369 81 l 369 163 l 306 163 l 306 735 l 672 81 l 785 81 l 785 763 l 849 763 l 849 847 z "},"O":{"ha":776,"x_min":51,"x_max":726,"o":"m 532 708 l 532 218 l 478 163 l 294 163 l 244 218 l 244 708 l 300 763 l 478 763 l 532 708 m 450 685 l 325 685 l 325 243 l 450 243 l 450 685 m 726 763 l 726 163 l 563 0 l 211 0 l 51 163 l 51 767 l 215 926 l 563 926 l 726 763 m 643 729 l 525 847 l 254 847 l 132 729 l 132 200 l 244 81 l 525 81 l 643 196 l 643 729 z "},"P":{"ha":825,"x_min":74,"x_max":792,"o":"m 608 710 l 608 508 l 557 458 l 332 458 l 332 763 l 557 763 l 608 710 m 526 685 l 414 685 l 414 540 l 526 540 l 526 685 m 792 763 l 792 451 l 629 293 l 414 293 l 414 243 l 478 243 l 478 0 l 74 0 l 74 243 l 136 243 l 136 685 l 74 685 l 74 926 l 635 926 l 792 763 m 710 731 l 599 847 l 158 847 l 158 763 l 221 763 l 221 163 l 158 163 l 158 81 l 394 81 l 394 163 l 332 163 l 332 372 l 593 372 l 710 486 l 710 731 z "},"Q":{"ha":783,"x_min":51,"x_max":803,"o":"m 533 708 l 533 217 l 481 163 l 300 163 l 246 217 l 246 708 l 300 763 l 481 763 l 533 708 m 451 685 l 329 685 l 329 243 l 451 243 l 451 685 m 728 763 l 728 168 l 803 93 l 632 -78 l 553 0 l 214 0 l 51 163 l 51 763 l 214 926 l 565 926 l 728 763 m 646 731 l 529 847 l 251 847 l 135 731 l 135 197 l 251 81 l 529 81 l 558 108 l 636 32 l 693 90 l 618 167 l 646 197 l 646 731 z "},"R":{"ha":896,"x_min":74,"x_max":868,"o":"m 608 711 l 608 564 l 550 506 l 332 506 l 332 763 l 556 763 l 608 711 m 525 685 l 415 685 l 415 589 l 525 589 l 525 685 m 868 243 l 868 0 l 499 0 l 499 229 l 519 229 l 465 347 l 406 347 l 406 229 l 454 229 l 454 0 l 74 0 l 74 243 l 139 243 l 139 685 l 74 685 l 74 926 l 636 926 l 793 767 l 793 507 l 707 421 l 789 243 l 868 243 m 789 164 l 735 164 l 610 432 l 711 532 l 711 732 l 597 847 l 157 847 l 157 763 l 221 763 l 221 164 l 157 164 l 157 81 l 378 81 l 378 164 l 332 164 l 332 421 l 513 421 l 631 164 l 579 164 l 579 81 l 789 81 l 789 164 z "},"S":{"ha":764,"x_min":51,"x_max":714,"o":"m 714 474 l 714 163 l 549 0 l 213 0 l 58 157 l 58 326 l 326 326 l 326 243 l 439 243 l 439 375 l 175 375 l 51 503 l 51 768 l 213 926 l 557 926 l 703 778 l 703 625 l 446 625 l 446 685 l 326 685 l 326 596 l 596 596 l 714 474 m 633 440 l 551 522 l 276 522 l 244 554 l 244 711 l 297 763 l 472 763 l 521 711 l 521 697 l 633 697 l 633 732 l 521 847 l 251 847 l 135 732 l 135 535 l 219 449 l 492 449 l 521 417 l 521 217 l 465 163 l 297 163 l 244 217 l 244 256 l 135 256 l 135 199 l 251 81 l 510 81 l 633 199 l 633 440 z "},"T":{"ha":840,"x_min":24,"x_max":817,"o":"m 817 926 l 817 588 l 601 588 l 601 685 l 556 685 l 556 243 l 622 243 l 622 0 l 217 0 l 217 243 l 283 243 l 283 685 l 243 685 l 243 588 l 24 588 l 24 926 l 817 926 m 739 847 l 103 847 l 103 664 l 178 664 l 178 763 l 364 763 l 364 163 l 299 163 l 299 81 l 540 81 l 540 163 l 476 163 l 476 763 l 665 763 l 665 664 l 739 664 l 739 847 z "},"U":{"ha":903,"x_min":46,"x_max":856,"o":"m 856 926 l 856 685 l 782 685 l 782 163 l 619 0 l 279 0 l 118 163 l 118 685 l 46 685 l 46 926 l 432 926 l 432 693 l 396 693 l 396 243 l 507 243 l 507 693 l 471 693 l 471 926 l 856 926 m 774 847 l 544 847 l 544 763 l 589 763 l 589 215 l 536 163 l 364 163 l 314 215 l 314 763 l 358 763 l 358 847 l 129 847 l 129 763 l 201 763 l 201 197 l 314 81 l 583 81 l 700 192 l 700 763 l 774 763 l 774 847 z "},"V":{"ha":883,"x_min":10,"x_max":875,"o":"m 875 926 l 875 685 l 779 685 l 563 0 l 332 0 l 106 685 l 10 685 l 10 926 l 414 926 l 414 685 l 368 685 l 444 451 l 518 685 l 471 685 l 471 926 l 875 926 m 803 847 l 553 847 l 553 763 l 621 763 l 446 214 l 267 763 l 332 763 l 332 847 l 92 847 l 92 763 l 168 763 l 392 81 l 500 81 l 718 763 l 803 763 l 803 847 z "},"W":{"ha":1210,"x_min":10,"x_max":1200,"o":"m 1200 926 l 1200 685 l 1111 685 l 942 0 l 689 0 l 606 332 l 525 0 l 269 0 l 103 681 l 10 681 l 10 926 l 417 926 l 417 685 l 358 685 l 413 465 l 525 926 l 689 926 l 803 465 l 854 685 l 803 685 l 803 926 l 1200 926 m 1118 847 l 886 847 l 886 763 l 949 763 l 796 175 l 632 847 l 582 847 l 417 175 l 264 763 l 333 763 l 333 847 l 93 847 l 93 763 l 163 763 l 333 81 l 478 81 l 607 594 l 733 81 l 878 81 l 1050 763 l 1118 763 l 1118 847 z "},"X":{"ha":906,"x_min":10,"x_max":897,"o":"m 886 926 l 886 685 l 783 685 l 607 468 l 792 243 l 897 243 l 897 0 l 483 0 l 483 221 l 514 221 l 444 303 l 376 221 l 415 221 l 415 0 l 10 0 l 10 243 l 103 243 l 294 468 l 122 685 l 21 685 l 21 926 l 424 926 l 424 704 l 397 704 l 457 633 l 518 704 l 493 704 l 493 926 l 886 926 m 804 847 l 575 847 l 575 763 l 647 763 l 457 535 l 268 763 l 344 763 l 344 847 l 103 847 l 103 763 l 149 763 l 392 468 l 142 163 l 92 163 l 92 81 l 325 81 l 325 163 l 250 163 l 446 403 l 643 163 l 569 163 l 569 81 l 815 81 l 815 163 l 763 163 l 513 468 l 756 763 l 804 763 l 804 847 z "},"Y":{"ha":810,"x_min":10,"x_max":801,"o":"m 801 926 l 801 685 l 719 685 l 543 350 l 543 243 l 608 243 l 608 0 l 203 0 l 203 243 l 268 243 l 268 350 l 92 685 l 10 685 l 10 926 l 379 926 l 379 699 l 351 699 l 408 592 l 465 699 l 438 699 l 438 926 l 801 926 m 719 847 l 517 847 l 517 763 l 563 763 l 407 465 l 247 763 l 296 763 l 296 847 l 92 847 l 92 763 l 142 763 l 351 372 l 351 163 l 286 163 l 286 81 l 526 81 l 526 163 l 461 163 l 461 372 l 668 763 l 719 763 l 719 847 z "},"Z":{"ha":775,"x_min":18,"x_max":756,"o":"m 728 926 l 728 693 l 354 236 l 514 236 l 514 363 l 756 363 l 756 0 l 18 0 l 18 249 l 382 693 l 285 693 l 285 638 l 57 638 l 57 926 l 728 926 m 646 847 l 138 847 l 138 718 l 217 718 l 217 763 l 549 763 l 100 215 l 100 81 l 672 81 l 672 293 l 590 293 l 590 163 l 189 163 l 646 724 l 646 847 z "},"[":{"ha":531,"x_min":88,"x_max":493,"o":"m 88 1069 l 493 1069 l 493 828 l 365 828 l 365 99 l 493 99 l 493 -143 l 88 -143 l 88 1069 m 169 993 l 169 -67 l 410 -67 l 410 18 l 282 18 l 282 908 l 410 908 l 410 993 l 169 993 z "},"\\":{"ha":694,"x_min":-37,"x_max":732,"o":"m -37 1069 l 172 1069 l 732 -143 l 518 -143 l -37 1069 m 61 1004 l 556 -75 l 629 -75 l 133 1004 l 61 1004 z "},"]":{"ha":531,"x_min":38,"x_max":443,"o":"m 443 1069 l 443 -143 l 38 -143 l 38 99 l 165 99 l 165 828 l 38 828 l 38 1069 l 443 1069 m 361 993 l 121 993 l 121 908 l 249 908 l 249 18 l 121 18 l 121 -67 l 361 -67 l 361 993 z "},"`":{"ha":694,"x_min":190,"x_max":440,"o":"m 397 1229 l 440 982 l 290 982 l 190 1229 l 397 1229 m 346 1164 l 283 1164 l 331 1046 l 368 1046 l 346 1164 z "},"a":{"ha":886,"x_min":14,"x_max":872,"o":"m 449 763 l 556 418 l 321 418 l 433 763 l 449 763 m 440 576 l 408 481 l 471 481 l 440 576 m 579 926 l 789 243 l 872 243 l 872 0 l 483 0 l 483 233 l 543 233 l 526 286 l 350 286 l 333 233 l 390 233 l 390 0 l 14 0 l 14 243 l 90 243 l 317 926 l 579 926 m 517 847 l 375 847 l 150 163 l 97 163 l 97 81 l 304 81 l 304 163 l 236 163 l 296 346 l 579 346 l 636 163 l 571 163 l 571 81 l 789 81 l 789 163 l 732 163 l 517 847 z "},"b":{"ha":854,"x_min":74,"x_max":803,"o":"m 557 763 l 608 710 l 608 563 l 560 513 l 332 513 l 332 763 l 557 763 m 525 685 l 415 685 l 415 593 l 525 593 l 525 685 m 554 431 l 608 376 l 608 221 l 550 163 l 332 163 l 332 431 l 554 431 m 525 353 l 415 353 l 415 243 l 525 243 l 525 353 m 803 763 l 803 522 l 760 476 l 803 431 l 803 164 l 635 0 l 74 0 l 74 243 l 139 243 l 139 685 l 74 685 l 74 926 l 644 926 l 803 763 m 719 719 l 594 847 l 158 847 l 158 763 l 221 763 l 221 165 l 156 165 l 156 81 l 588 81 l 718 210 l 718 400 l 646 474 l 719 547 l 719 719 z "},"c":{"ha":757,"x_min":51,"x_max":706,"o":"m 706 382 l 706 163 l 538 0 l 214 0 l 51 167 l 51 769 l 214 926 l 547 926 l 706 763 l 706 564 l 449 564 l 449 685 l 328 685 l 328 247 l 449 247 l 449 382 l 706 382 m 624 303 l 531 303 l 531 219 l 475 163 l 300 163 l 244 219 l 244 713 l 300 763 l 481 763 l 531 713 l 531 643 l 624 643 l 624 732 l 511 847 l 251 847 l 135 732 l 135 203 l 251 81 l 500 81 l 624 203 l 624 303 z "},"d":{"ha":853,"x_min":74,"x_max":801,"o":"m 608 706 l 608 214 l 557 163 l 331 163 l 331 763 l 553 763 l 608 706 m 525 685 l 414 685 l 414 243 l 525 243 l 525 685 m 801 763 l 801 163 l 642 0 l 74 0 l 74 243 l 139 243 l 139 685 l 74 685 l 74 926 l 642 926 l 801 763 m 719 729 l 604 847 l 165 847 l 165 763 l 221 763 l 221 163 l 165 163 l 165 81 l 604 81 l 719 193 l 719 729 z "},"e":{"ha":835,"x_min":74,"x_max":783,"o":"m 783 926 l 783 629 l 535 629 l 535 685 l 415 685 l 415 586 l 635 586 l 635 350 l 415 350 l 415 243 l 535 243 l 535 310 l 783 310 l 783 0 l 74 0 l 74 243 l 138 243 l 138 685 l 74 685 l 74 926 l 783 926 m 700 847 l 157 847 l 157 763 l 221 763 l 221 163 l 157 163 l 157 81 l 700 81 l 700 228 l 617 228 l 617 163 l 331 163 l 331 432 l 553 432 l 553 507 l 331 507 l 331 763 l 617 763 l 617 708 l 700 708 l 700 847 z "},"f":{"ha":790,"x_min":74,"x_max":767,"o":"m 767 926 l 767 619 l 518 619 l 518 685 l 414 685 l 414 568 l 621 568 l 621 333 l 414 333 l 414 243 l 476 243 l 476 0 l 74 0 l 74 243 l 138 243 l 138 685 l 74 685 l 74 926 l 767 926 m 688 847 l 156 847 l 156 763 l 219 763 l 219 163 l 156 163 l 156 81 l 394 81 l 394 163 l 331 163 l 331 413 l 540 413 l 540 489 l 331 489 l 331 763 l 600 763 l 600 699 l 688 699 l 688 847 z "},"g":{"ha":775,"x_min":51,"x_max":715,"o":"m 715 550 l 715 0 l 215 0 l 51 163 l 51 763 l 215 926 l 556 926 l 715 767 l 715 606 l 456 606 l 456 685 l 328 685 l 328 243 l 456 243 l 456 326 l 413 326 l 413 550 l 715 550 m 631 471 l 486 471 l 486 403 l 539 403 l 539 163 l 300 163 l 246 218 l 246 710 l 300 763 l 486 763 l 539 710 l 539 685 l 631 685 l 631 732 l 515 847 l 251 847 l 135 732 l 135 197 l 251 81 l 631 81 l 631 471 z "},"h":{"ha":940,"x_min":74,"x_max":865,"o":"m 865 926 l 865 685 l 800 685 l 800 243 l 865 243 l 865 0 l 489 0 l 489 235 l 535 235 l 535 346 l 406 346 l 406 235 l 450 235 l 450 0 l 74 0 l 74 243 l 138 243 l 138 685 l 74 685 l 74 926 l 450 926 l 450 694 l 406 694 l 406 596 l 535 596 l 535 694 l 489 694 l 489 926 l 865 926 m 783 847 l 571 847 l 571 763 l 607 763 l 607 517 l 332 517 l 332 763 l 367 763 l 367 847 l 167 847 l 167 763 l 219 763 l 219 164 l 167 164 l 167 81 l 367 81 l 367 164 l 332 164 l 332 432 l 607 432 l 607 164 l 571 164 l 571 81 l 783 81 l 783 164 l 719 164 l 719 763 l 783 763 l 783 847 z "},"i":{"ha":553,"x_min":74,"x_max":478,"o":"m 478 926 l 478 685 l 414 685 l 414 243 l 478 243 l 478 0 l 74 0 l 74 243 l 138 243 l 138 685 l 74 685 l 74 926 l 478 926 m 396 847 l 157 847 l 157 763 l 219 763 l 219 163 l 157 163 l 157 81 l 396 81 l 396 163 l 332 163 l 332 763 l 396 763 l 396 847 z "},"j":{"ha":690,"x_min":0,"x_max":644,"o":"m 644 926 l 644 685 l 581 685 l 581 163 l 415 0 l 158 0 l 0 163 l 0 390 l 247 390 l 247 243 l 304 243 l 304 685 l 221 685 l 221 926 l 644 926 m 561 847 l 304 847 l 304 763 l 386 763 l 386 218 l 331 163 l 221 163 l 165 218 l 165 311 l 83 311 l 83 194 l 196 81 l 381 81 l 499 194 l 499 763 l 561 763 l 561 847 z "},"k":{"ha":924,"x_min":74,"x_max":900,"o":"m 883 926 l 883 685 l 786 685 l 665 551 l 804 243 l 900 243 l 900 0 l 499 0 l 499 236 l 550 236 l 494 361 l 408 271 l 408 236 l 460 236 l 460 0 l 74 0 l 74 243 l 139 243 l 139 685 l 74 685 l 74 926 l 456 926 l 456 701 l 401 701 l 401 581 l 513 701 l 494 701 l 494 926 l 883 926 m 810 847 l 576 847 l 576 763 l 657 763 l 331 406 l 331 763 l 388 763 l 388 847 l 156 847 l 156 763 l 222 763 l 222 163 l 156 163 l 156 81 l 388 81 l 388 163 l 331 163 l 331 297 l 510 493 l 657 163 l 582 163 l 582 81 l 817 81 l 817 163 l 754 163 l 576 564 l 758 767 l 810 767 l 810 847 z "},"l":{"ha":800,"x_min":74,"x_max":763,"o":"m 489 926 l 489 685 l 413 685 l 413 243 l 515 243 l 515 392 l 763 392 l 763 0 l 74 0 l 74 243 l 138 243 l 138 685 l 74 685 l 74 926 l 489 926 m 407 847 l 157 847 l 157 763 l 221 763 l 221 163 l 157 163 l 157 81 l 681 81 l 681 313 l 597 313 l 597 163 l 331 163 l 331 763 l 407 763 l 407 847 z "},"m":{"ha":1114,"x_min":74,"x_max":1039,"o":"m 1039 926 l 1039 685 l 975 685 l 975 243 l 1039 243 l 1039 0 l 654 0 l 654 243 l 718 243 l 718 463 l 618 292 l 494 292 l 392 463 l 392 243 l 460 243 l 460 0 l 74 0 l 74 243 l 139 243 l 139 685 l 74 685 l 74 926 l 392 926 l 556 642 l 724 926 l 1039 926 m 957 847 l 765 847 l 557 497 l 354 847 l 156 847 l 156 763 l 219 763 l 219 163 l 156 163 l 156 81 l 378 81 l 378 163 l 313 163 l 313 751 l 532 374 l 581 374 l 800 746 l 800 163 l 736 163 l 736 81 l 957 81 l 957 163 l 894 163 l 894 763 l 957 763 l 957 847 z "},"n":{"ha":982,"x_min":74,"x_max":931,"o":"m 931 926 l 931 685 l 867 685 l 867 0 l 624 0 l 374 464 l 374 238 l 447 238 l 447 0 l 74 0 l 74 243 l 139 243 l 139 685 l 74 685 l 74 926 l 410 926 l 632 510 l 632 694 l 567 694 l 567 926 l 931 926 m 849 847 l 643 847 l 643 763 l 700 763 l 700 238 l 358 847 l 157 847 l 157 763 l 222 763 l 222 163 l 157 163 l 157 81 l 369 81 l 369 163 l 306 163 l 306 735 l 672 81 l 785 81 l 785 763 l 849 763 l 849 847 z "},"o":{"ha":776,"x_min":51,"x_max":726,"o":"m 532 708 l 532 218 l 478 163 l 294 163 l 244 218 l 244 708 l 300 763 l 478 763 l 532 708 m 450 685 l 325 685 l 325 243 l 450 243 l 450 685 m 726 763 l 726 163 l 563 0 l 211 0 l 51 163 l 51 767 l 215 926 l 563 926 l 726 763 m 643 729 l 525 847 l 254 847 l 132 729 l 132 200 l 244 81 l 525 81 l 643 196 l 643 729 z "},"p":{"ha":825,"x_min":74,"x_max":792,"o":"m 608 710 l 608 508 l 557 458 l 332 458 l 332 763 l 557 763 l 608 710 m 526 685 l 414 685 l 414 540 l 526 540 l 526 685 m 792 763 l 792 451 l 629 293 l 414 293 l 414 243 l 478 243 l 478 0 l 74 0 l 74 243 l 136 243 l 136 685 l 74 685 l 74 926 l 635 926 l 792 763 m 710 731 l 599 847 l 158 847 l 158 763 l 221 763 l 221 163 l 158 163 l 158 81 l 394 81 l 394 163 l 332 163 l 332 372 l 593 372 l 710 486 l 710 731 z "},"q":{"ha":783,"x_min":51,"x_max":803,"o":"m 533 708 l 533 217 l 481 163 l 300 163 l 246 217 l 246 708 l 300 763 l 481 763 l 533 708 m 451 685 l 329 685 l 329 243 l 451 243 l 451 685 m 728 763 l 728 168 l 803 93 l 632 -78 l 553 0 l 214 0 l 51 163 l 51 763 l 214 926 l 565 926 l 728 763 m 646 731 l 529 847 l 251 847 l 135 731 l 135 197 l 251 81 l 529 81 l 558 108 l 636 32 l 693 90 l 618 167 l 646 197 l 646 731 z "},"r":{"ha":896,"x_min":74,"x_max":868,"o":"m 608 711 l 608 564 l 550 506 l 332 506 l 332 763 l 556 763 l 608 711 m 525 685 l 415 685 l 415 589 l 525 589 l 525 685 m 868 243 l 868 0 l 499 0 l 499 229 l 519 229 l 465 347 l 406 347 l 406 229 l 454 229 l 454 0 l 74 0 l 74 243 l 139 243 l 139 685 l 74 685 l 74 926 l 636 926 l 793 767 l 793 507 l 707 421 l 789 243 l 868 243 m 789 164 l 735 164 l 610 432 l 711 532 l 711 732 l 597 847 l 157 847 l 157 763 l 221 763 l 221 164 l 157 164 l 157 81 l 378 81 l 378 164 l 332 164 l 332 421 l 513 421 l 631 164 l 579 164 l 579 81 l 789 81 l 789 164 z "},"s":{"ha":764,"x_min":51,"x_max":714,"o":"m 714 474 l 714 163 l 549 0 l 213 0 l 58 157 l 58 326 l 326 326 l 326 243 l 439 243 l 439 375 l 175 375 l 51 503 l 51 768 l 213 926 l 557 926 l 703 778 l 703 625 l 446 625 l 446 685 l 326 685 l 326 596 l 596 596 l 714 474 m 633 440 l 551 522 l 276 522 l 244 554 l 244 711 l 297 763 l 472 763 l 521 711 l 521 697 l 633 697 l 633 732 l 521 847 l 251 847 l 135 732 l 135 535 l 219 449 l 492 449 l 521 417 l 521 217 l 465 163 l 297 163 l 244 217 l 244 256 l 135 256 l 135 199 l 251 81 l 510 81 l 633 199 l 633 440 z "},"t":{"ha":840,"x_min":24,"x_max":817,"o":"m 817 926 l 817 588 l 601 588 l 601 685 l 556 685 l 556 243 l 622 243 l 622 0 l 217 0 l 217 243 l 283 243 l 283 685 l 243 685 l 243 588 l 24 588 l 24 926 l 817 926 m 739 847 l 103 847 l 103 664 l 178 664 l 178 763 l 364 763 l 364 163 l 299 163 l 299 81 l 540 81 l 540 163 l 476 163 l 476 763 l 665 763 l 665 664 l 739 664 l 739 847 z "},"u":{"ha":903,"x_min":46,"x_max":856,"o":"m 856 926 l 856 685 l 782 685 l 782 163 l 619 0 l 279 0 l 118 163 l 118 685 l 46 685 l 46 926 l 432 926 l 432 693 l 396 693 l 396 243 l 507 243 l 507 693 l 471 693 l 471 926 l 856 926 m 774 847 l 544 847 l 544 763 l 589 763 l 589 215 l 536 163 l 364 163 l 314 215 l 314 763 l 358 763 l 358 847 l 129 847 l 129 763 l 201 763 l 201 197 l 314 81 l 583 81 l 700 192 l 700 763 l 774 763 l 774 847 z "},"v":{"ha":883,"x_min":10,"x_max":875,"o":"m 875 926 l 875 685 l 779 685 l 563 0 l 332 0 l 106 685 l 10 685 l 10 926 l 414 926 l 414 685 l 368 685 l 444 451 l 518 685 l 471 685 l 471 926 l 875 926 m 803 847 l 553 847 l 553 763 l 621 763 l 446 214 l 267 763 l 332 763 l 332 847 l 92 847 l 92 763 l 168 763 l 392 81 l 500 81 l 718 763 l 803 763 l 803 847 z "},"w":{"ha":1210,"x_min":10,"x_max":1200,"o":"m 1200 926 l 1200 685 l 1111 685 l 942 0 l 689 0 l 606 332 l 525 0 l 269 0 l 103 681 l 10 681 l 10 926 l 417 926 l 417 685 l 358 685 l 413 465 l 525 926 l 689 926 l 803 465 l 854 685 l 803 685 l 803 926 l 1200 926 m 1118 847 l 886 847 l 886 763 l 949 763 l 796 175 l 632 847 l 582 847 l 417 175 l 264 763 l 333 763 l 333 847 l 93 847 l 93 763 l 163 763 l 333 81 l 478 81 l 607 594 l 733 81 l 878 81 l 1050 763 l 1118 763 l 1118 847 z "},"x":{"ha":906,"x_min":10,"x_max":897,"o":"m 886 926 l 886 685 l 783 685 l 607 468 l 792 243 l 897 243 l 897 0 l 483 0 l 483 221 l 514 221 l 444 303 l 376 221 l 415 221 l 415 0 l 10 0 l 10 243 l 103 243 l 294 468 l 122 685 l 21 685 l 21 926 l 424 926 l 424 704 l 397 704 l 457 633 l 518 704 l 493 704 l 493 926 l 886 926 m 804 847 l 575 847 l 575 763 l 647 763 l 457 535 l 268 763 l 344 763 l 344 847 l 103 847 l 103 763 l 149 763 l 392 468 l 142 163 l 92 163 l 92 81 l 325 81 l 325 163 l 250 163 l 446 403 l 643 163 l 569 163 l 569 81 l 815 81 l 815 163 l 763 163 l 513 468 l 756 763 l 804 763 l 804 847 z "},"y":{"ha":810,"x_min":10,"x_max":801,"o":"m 801 926 l 801 685 l 719 685 l 543 350 l 543 243 l 608 243 l 608 0 l 203 0 l 203 243 l 268 243 l 268 350 l 92 685 l 10 685 l 10 926 l 379 926 l 379 699 l 351 699 l 408 592 l 465 699 l 438 699 l 438 926 l 801 926 m 719 847 l 517 847 l 517 763 l 563 763 l 407 465 l 247 763 l 296 763 l 296 847 l 92 847 l 92 763 l 142 763 l 351 372 l 351 163 l 286 163 l 286 81 l 526 81 l 526 163 l 461 163 l 461 372 l 668 763 l 719 763 l 719 847 z "},"z":{"ha":775,"x_min":18,"x_max":756,"o":"m 728 926 l 728 693 l 354 236 l 514 236 l 514 363 l 756 363 l 756 0 l 18 0 l 18 249 l 382 693 l 285 693 l 285 638 l 57 638 l 57 926 l 728 926 m 646 847 l 138 847 l 138 718 l 217 718 l 217 763 l 549 763 l 100 215 l 100 81 l 672 81 l 672 293 l 590 293 l 590 163 l 189 163 l 646 724 l 646 847 z "},"{":{"ha":531,"x_min":14,"x_max":507,"o":"m 507 1069 l 507 828 l 411 828 l 379 796 l 379 542 l 333 478 l 379 413 l 379 131 l 411 99 l 507 99 l 507 -143 l 264 -143 l 101 21 l 101 308 l 74 354 l 14 354 l 14 600 l 74 600 l 101 646 l 101 908 l 264 1069 l 507 1069 m 424 993 l 303 993 l 183 875 l 183 593 l 138 519 l 92 519 l 92 435 l 138 435 l 183 361 l 183 57 l 303 -64 l 424 -64 l 424 21 l 364 21 l 296 90 l 296 403 l 244 478 l 296 551 l 296 840 l 364 908 l 424 908 l 424 993 z "},"}":{"ha":531,"x_min":24,"x_max":517,"o":"m 24 1069 l 267 1069 l 429 908 l 429 646 l 457 600 l 517 600 l 517 354 l 457 354 l 429 308 l 429 21 l 267 -143 l 24 -143 l 24 99 l 119 99 l 151 131 l 151 413 l 197 478 l 151 542 l 151 796 l 119 828 l 24 828 l 24 1069 m 107 993 l 107 908 l 167 908 l 235 840 l 235 551 l 286 478 l 235 403 l 235 90 l 167 21 l 107 21 l 107 -64 l 228 -64 l 347 57 l 347 361 l 393 435 l 439 435 l 439 519 l 393 519 l 347 593 l 347 875 l 228 993 l 107 993 z "},"Ä":{"ha":886,"x_min":14,"x_max":872,"o":"m 449 763 l 556 418 l 321 418 l 433 763 l 449 763 m 440 576 l 408 481 l 471 481 l 440 576 m 579 926 l 789 243 l 872 243 l 872 0 l 483 0 l 483 233 l 543 233 l 526 286 l 350 286 l 333 233 l 390 233 l 390 0 l 14 0 l 14 243 l 90 243 l 317 926 l 579 926 m 517 847 l 375 847 l 150 163 l 97 163 l 97 81 l 304 81 l 304 163 l 236 163 l 296 346 l 579 346 l 636 163 l 571 163 l 571 81 l 789 81 l 789 163 l 732 163 l 517 847 m 642 1139 l 642 1044 l 606 1008 l 511 1008 l 476 1044 l 476 1139 l 511 1176 l 606 1176 l 642 1139 m 588 1119 l 531 1119 l 531 1065 l 588 1065 l 588 1119 m 413 1139 l 413 1044 l 375 1008 l 283 1008 l 246 1044 l 246 1139 l 283 1176 l 375 1176 l 413 1139 m 356 1119 l 301 1119 l 301 1065 l 356 1065 l 356 1119 z "},"Å":{"ha":886,"x_min":14,"x_max":872,"o":"m 449 763 l 556 418 l 321 418 l 433 763 l 449 763 m 440 576 l 408 481 l 471 481 l 440 576 m 579 926 l 789 243 l 872 243 l 872 0 l 483 0 l 483 233 l 543 233 l 526 286 l 350 286 l 333 233 l 390 233 l 390 0 l 14 0 l 14 243 l 90 243 l 317 926 l 579 926 m 517 847 l 375 847 l 150 163 l 97 163 l 97 81 l 304 81 l 304 163 l 236 163 l 296 346 l 579 346 l 636 163 l 571 163 l 571 81 l 789 81 l 789 163 l 732 163 l 517 847 m 500 1157 l 500 1097 l 475 1071 l 411 1071 l 386 1097 l 386 1161 l 411 1185 l 471 1185 l 500 1157 m 463 1147 l 425 1147 l 425 1110 l 463 1110 l 463 1147 m 589 1201 l 589 1054 l 515 982 l 368 982 l 296 1054 l 296 1201 l 368 1274 l 515 1274 l 589 1201 m 540 1181 l 496 1225 l 390 1225 l 347 1181 l 347 1075 l 390 1032 l 496 1032 l 540 1075 l 540 1181 z "},"Ç":{"ha":757,"x_min":51,"x_max":706,"o":"m 706 382 l 706 163 l 538 0 l 472 0 l 472 -276 l 235 -276 l 308 0 l 215 0 l 51 168 l 51 767 l 215 926 l 547 926 l 706 767 l 706 564 l 449 564 l 449 685 l 328 685 l 328 243 l 449 243 l 449 382 l 706 382 m 624 301 l 531 301 l 531 219 l 478 163 l 301 163 l 246 219 l 246 713 l 301 767 l 482 767 l 531 713 l 531 643 l 624 643 l 624 732 l 511 847 l 253 847 l 136 732 l 136 201 l 253 81 l 371 81 l 371 0 l 317 -212 l 407 -212 l 407 81 l 500 81 l 624 201 l 624 301 z "},"É":{"ha":835,"x_min":74,"x_max":783,"o":"m 783 926 l 783 629 l 535 629 l 535 685 l 415 685 l 415 586 l 635 586 l 635 350 l 415 350 l 415 243 l 535 243 l 535 310 l 783 310 l 783 0 l 74 0 l 74 243 l 138 243 l 138 685 l 74 685 l 74 926 l 783 926 m 700 847 l 157 847 l 157 763 l 221 763 l 221 163 l 157 163 l 157 81 l 700 81 l 700 228 l 617 228 l 617 163 l 331 163 l 331 432 l 553 432 l 553 507 l 331 507 l 331 763 l 617 763 l 617 708 l 700 708 l 700 847 m 372 1229 l 579 1229 l 479 982 l 329 982 l 372 1229 m 422 1164 l 401 1046 l 439 1046 l 486 1164 l 422 1164 z "},"Ñ":{"ha":982,"x_min":74,"x_max":931,"o":"m 931 926 l 931 685 l 867 685 l 867 0 l 624 0 l 374 464 l 374 238 l 447 238 l 447 0 l 74 0 l 74 243 l 139 243 l 139 685 l 74 685 l 74 926 l 410 926 l 632 510 l 632 694 l 567 694 l 567 926 l 931 926 m 849 847 l 643 847 l 643 763 l 700 763 l 700 238 l 358 847 l 157 847 l 157 763 l 222 763 l 222 163 l 157 163 l 157 81 l 369 81 l 369 163 l 306 163 l 306 735 l 672 81 l 785 81 l 785 763 l 849 763 l 849 847 m 688 1218 l 688 1067 l 626 1006 l 450 1006 l 450 968 l 293 968 l 293 1113 l 361 1181 l 542 1181 l 542 1218 l 688 1218 m 632 1164 l 588 1164 l 588 1118 l 383 1118 l 356 1090 l 356 1025 l 403 1025 l 403 1071 l 607 1071 l 632 1096 l 632 1164 z "},"Ö":{"ha":776,"x_min":51,"x_max":726,"o":"m 532 708 l 532 218 l 478 163 l 294 163 l 244 218 l 244 708 l 300 763 l 478 763 l 532 708 m 450 685 l 325 685 l 325 243 l 450 243 l 450 685 m 726 763 l 726 163 l 563 0 l 211 0 l 51 163 l 51 767 l 215 926 l 563 926 l 726 763 m 643 729 l 525 847 l 254 847 l 132 729 l 132 200 l 244 81 l 525 81 l 643 196 l 643 729 m 588 1139 l 588 1044 l 551 1008 l 457 1008 l 422 1044 l 422 1139 l 457 1176 l 551 1176 l 588 1139 m 533 1119 l 476 1119 l 476 1065 l 533 1065 l 533 1119 m 358 1139 l 358 1044 l 321 1008 l 229 1008 l 192 1044 l 192 1139 l 229 1176 l 321 1176 l 358 1139 m 301 1119 l 247 1119 l 247 1065 l 301 1065 l 301 1119 z "},"Ü":{"ha":903,"x_min":46,"x_max":856,"o":"m 856 926 l 856 685 l 782 685 l 782 163 l 619 0 l 279 0 l 118 163 l 118 685 l 46 685 l 46 926 l 432 926 l 432 693 l 396 693 l 396 243 l 507 243 l 507 693 l 471 693 l 471 926 l 856 926 m 774 847 l 544 847 l 544 763 l 589 763 l 589 215 l 536 163 l 364 163 l 314 215 l 314 763 l 358 763 l 358 847 l 129 847 l 129 763 l 201 763 l 201 197 l 314 81 l 583 81 l 700 192 l 700 763 l 774 763 l 774 847 m 650 1139 l 650 1044 l 614 1008 l 519 1008 l 485 1044 l 485 1139 l 519 1176 l 614 1176 l 650 1139 m 596 1119 l 539 1119 l 539 1065 l 596 1065 l 596 1119 m 421 1139 l 421 1044 l 383 1008 l 292 1008 l 254 1044 l 254 1139 l 292 1176 l 383 1176 l 421 1139 m 364 1119 l 310 1119 l 310 1065 l 364 1065 l 364 1119 z "},"á":{"ha":886,"x_min":14,"x_max":872,"o":"m 449 763 l 556 418 l 321 418 l 433 763 l 449 763 m 440 576 l 408 481 l 471 481 l 440 576 m 579 926 l 789 243 l 872 243 l 872 0 l 483 0 l 483 233 l 543 233 l 526 286 l 350 286 l 333 233 l 390 233 l 390 0 l 14 0 l 14 243 l 90 243 l 317 926 l 579 926 m 517 847 l 375 847 l 150 163 l 97 163 l 97 81 l 304 81 l 304 163 l 236 163 l 296 346 l 579 346 l 636 163 l 571 163 l 571 81 l 789 81 l 789 163 l 732 163 l 517 847 m 389 1229 l 596 1229 l 496 982 l 346 982 l 389 1229 m 439 1164 l 418 1046 l 456 1046 l 503 1164 l 439 1164 z "},"à":{"ha":886,"x_min":14,"x_max":872,"o":"m 449 763 l 556 418 l 321 418 l 433 763 l 449 763 m 440 576 l 408 481 l 471 481 l 440 576 m 579 926 l 789 243 l 872 243 l 872 0 l 483 0 l 483 233 l 543 233 l 526 286 l 350 286 l 333 233 l 390 233 l 390 0 l 14 0 l 14 243 l 90 243 l 317 926 l 579 926 m 517 847 l 375 847 l 150 163 l 97 163 l 97 81 l 304 81 l 304 163 l 236 163 l 296 346 l 579 346 l 636 163 l 571 163 l 571 81 l 789 81 l 789 163 l 732 163 l 517 847 m 493 1229 l 536 982 l 386 982 l 286 1229 l 493 1229 m 442 1164 l 379 1164 l 426 1046 l 464 1046 l 442 1164 z "},"â":{"ha":886,"x_min":14,"x_max":872,"o":"m 449 763 l 556 418 l 321 418 l 433 763 l 449 763 m 440 576 l 408 481 l 471 481 l 440 576 m 579 926 l 789 243 l 872 243 l 872 0 l 483 0 l 483 233 l 543 233 l 526 286 l 350 286 l 333 233 l 390 233 l 390 0 l 14 0 l 14 243 l 90 243 l 317 926 l 579 926 m 517 847 l 375 847 l 150 163 l 97 163 l 97 81 l 304 81 l 304 163 l 236 163 l 296 346 l 579 346 l 636 163 l 571 163 l 571 81 l 789 81 l 789 163 l 732 163 l 517 847 m 503 1229 l 657 983 l 486 983 l 440 1025 l 399 983 l 229 983 l 382 1229 l 503 1229 m 467 1169 l 419 1169 l 335 1038 l 376 1038 l 440 1101 l 508 1038 l 550 1038 l 467 1169 z "},"ä":{"ha":886,"x_min":14,"x_max":872,"o":"m 449 763 l 556 418 l 321 418 l 433 763 l 449 763 m 440 576 l 408 481 l 471 481 l 440 576 m 579 926 l 789 243 l 872 243 l 872 0 l 483 0 l 483 233 l 543 233 l 526 286 l 350 286 l 333 233 l 390 233 l 390 0 l 14 0 l 14 243 l 90 243 l 317 926 l 579 926 m 517 847 l 375 847 l 150 163 l 97 163 l 97 81 l 304 81 l 304 163 l 236 163 l 296 346 l 579 346 l 636 163 l 571 163 l 571 81 l 789 81 l 789 163 l 732 163 l 517 847 m 642 1139 l 642 1044 l 606 1008 l 511 1008 l 476 1044 l 476 1139 l 511 1176 l 606 1176 l 642 1139 m 588 1119 l 531 1119 l 531 1065 l 588 1065 l 588 1119 m 413 1139 l 413 1044 l 375 1008 l 283 1008 l 246 1044 l 246 1139 l 283 1176 l 375 1176 l 413 1139 m 356 1119 l 301 1119 l 301 1065 l 356 1065 l 356 1119 z "},"ã":{"ha":886,"x_min":14,"x_max":872,"o":"m 449 763 l 556 418 l 321 418 l 433 763 l 449 763 m 440 576 l 408 481 l 471 481 l 440 576 m 579 926 l 789 243 l 872 243 l 872 0 l 483 0 l 483 233 l 543 233 l 526 286 l 350 286 l 333 233 l 390 233 l 390 0 l 14 0 l 14 243 l 90 243 l 317 926 l 579 926 m 517 847 l 375 847 l 150 163 l 97 163 l 97 81 l 304 81 l 304 163 l 236 163 l 296 346 l 579 346 l 636 163 l 571 163 l 571 81 l 789 81 l 789 163 l 732 163 l 517 847 m 640 1218 l 640 1067 l 579 1006 l 403 1006 l 403 968 l 246 968 l 246 1113 l 314 1181 l 494 1181 l 494 1218 l 640 1218 m 585 1164 l 540 1164 l 540 1118 l 336 1118 l 308 1090 l 308 1025 l 356 1025 l 356 1071 l 560 1071 l 585 1096 l 585 1164 z "},"å":{"ha":886,"x_min":14,"x_max":872,"o":"m 449 763 l 556 418 l 321 418 l 433 763 l 449 763 m 440 576 l 408 481 l 471 481 l 440 576 m 579 926 l 789 243 l 872 243 l 872 0 l 483 0 l 483 233 l 543 233 l 526 286 l 350 286 l 333 233 l 390 233 l 390 0 l 14 0 l 14 243 l 90 243 l 317 926 l 579 926 m 517 847 l 375 847 l 150 163 l 97 163 l 97 81 l 304 81 l 304 163 l 236 163 l 296 346 l 579 346 l 636 163 l 571 163 l 571 81 l 789 81 l 789 163 l 732 163 l 517 847 m 500 1157 l 500 1097 l 475 1071 l 411 1071 l 386 1097 l 386 1161 l 411 1185 l 471 1185 l 500 1157 m 463 1147 l 425 1147 l 425 1110 l 463 1110 l 463 1147 m 589 1201 l 589 1054 l 515 982 l 368 982 l 296 1054 l 296 1201 l 368 1274 l 515 1274 l 589 1201 m 540 1181 l 496 1225 l 390 1225 l 347 1181 l 347 1075 l 390 1032 l 496 1032 l 540 1075 l 540 1181 z "},"ç":{"ha":757,"x_min":51,"x_max":706,"o":"m 706 382 l 706 163 l 538 0 l 472 0 l 472 -276 l 235 -276 l 308 0 l 215 0 l 51 168 l 51 767 l 215 926 l 547 926 l 706 767 l 706 564 l 449 564 l 449 685 l 328 685 l 328 243 l 449 243 l 449 382 l 706 382 m 624 301 l 531 301 l 531 219 l 478 163 l 301 163 l 246 219 l 246 713 l 301 767 l 482 767 l 531 713 l 531 643 l 624 643 l 624 732 l 511 847 l 253 847 l 136 732 l 136 201 l 253 81 l 371 81 l 371 0 l 317 -212 l 407 -212 l 407 81 l 500 81 l 624 201 l 624 301 z "},"é":{"ha":835,"x_min":74,"x_max":783,"o":"m 783 926 l 783 629 l 535 629 l 535 685 l 415 685 l 415 586 l 635 586 l 635 350 l 415 350 l 415 243 l 535 243 l 535 310 l 783 310 l 783 0 l 74 0 l 74 243 l 138 243 l 138 685 l 74 685 l 74 926 l 783 926 m 700 847 l 157 847 l 157 763 l 221 763 l 221 163 l 157 163 l 157 81 l 700 81 l 700 228 l 617 228 l 617 163 l 331 163 l 331 432 l 553 432 l 553 507 l 331 507 l 331 763 l 617 763 l 617 708 l 700 708 l 700 847 m 372 1229 l 579 1229 l 479 982 l 329 982 l 372 1229 m 422 1164 l 401 1046 l 439 1046 l 486 1164 l 422 1164 z "},"è":{"ha":835,"x_min":74,"x_max":783,"o":"m 783 926 l 783 629 l 535 629 l 535 685 l 415 685 l 415 586 l 635 586 l 635 350 l 415 350 l 415 243 l 535 243 l 535 310 l 783 310 l 783 0 l 74 0 l 74 243 l 138 243 l 138 685 l 74 685 l 74 926 l 783 926 m 700 847 l 157 847 l 157 763 l 221 763 l 221 163 l 157 163 l 157 81 l 700 81 l 700 228 l 617 228 l 617 163 l 331 163 l 331 432 l 553 432 l 553 507 l 331 507 l 331 763 l 617 763 l 617 708 l 700 708 l 700 847 m 476 1229 l 519 982 l 369 982 l 269 1229 l 476 1229 m 425 1164 l 363 1164 l 410 1046 l 447 1046 l 425 1164 z "},"ê":{"ha":835,"x_min":74,"x_max":783,"o":"m 783 926 l 783 629 l 535 629 l 535 685 l 415 685 l 415 586 l 635 586 l 635 350 l 415 350 l 415 243 l 535 243 l 535 310 l 783 310 l 783 0 l 74 0 l 74 243 l 138 243 l 138 685 l 74 685 l 74 926 l 783 926 m 700 847 l 157 847 l 157 763 l 221 763 l 221 163 l 157 163 l 157 81 l 700 81 l 700 228 l 617 228 l 617 163 l 331 163 l 331 432 l 553 432 l 553 507 l 331 507 l 331 763 l 617 763 l 617 708 l 700 708 l 700 847 m 486 1229 l 640 983 l 469 983 l 424 1025 l 382 983 l 213 983 l 365 1229 l 486 1229 m 450 1169 l 403 1169 l 318 1038 l 360 1038 l 424 1101 l 492 1038 l 533 1038 l 450 1169 z "},"ë":{"ha":835,"x_min":74,"x_max":783,"o":"m 783 926 l 783 629 l 535 629 l 535 685 l 415 685 l 415 586 l 635 586 l 635 350 l 415 350 l 415 243 l 535 243 l 535 310 l 783 310 l 783 0 l 74 0 l 74 243 l 138 243 l 138 685 l 74 685 l 74 926 l 783 926 m 700 847 l 157 847 l 157 763 l 221 763 l 221 163 l 157 163 l 157 81 l 700 81 l 700 228 l 617 228 l 617 163 l 331 163 l 331 432 l 553 432 l 553 507 l 331 507 l 331 763 l 617 763 l 617 708 l 700 708 l 700 847 m 625 1139 l 625 1044 l 589 1008 l 494 1008 l 460 1044 l 460 1139 l 494 1176 l 589 1176 l 625 1139 m 571 1119 l 514 1119 l 514 1065 l 571 1065 l 571 1119 m 396 1139 l 396 1044 l 358 1008 l 267 1008 l 229 1044 l 229 1139 l 267 1176 l 358 1176 l 396 1139 m 339 1119 l 285 1119 l 285 1065 l 339 1065 l 339 1119 z "},"í":{"ha":553,"x_min":74,"x_max":478,"o":"m 478 926 l 478 685 l 414 685 l 414 243 l 478 243 l 478 0 l 74 0 l 74 243 l 138 243 l 138 685 l 74 685 l 74 926 l 478 926 m 396 847 l 157 847 l 157 763 l 219 763 l 219 163 l 157 163 l 157 81 l 396 81 l 396 163 l 332 163 l 332 763 l 396 763 l 396 847 m 222 1229 l 429 1229 l 329 982 l 179 982 l 222 1229 m 272 1164 l 251 1046 l 289 1046 l 336 1164 l 272 1164 z "},"ì":{"ha":553,"x_min":74,"x_max":478,"o":"m 478 926 l 478 685 l 414 685 l 414 243 l 478 243 l 478 0 l 74 0 l 74 243 l 138 243 l 138 685 l 74 685 l 74 926 l 478 926 m 396 847 l 157 847 l 157 763 l 219 763 l 219 163 l 157 163 l 157 81 l 396 81 l 396 163 l 332 163 l 332 763 l 396 763 l 396 847 m 325 1229 l 368 982 l 218 982 l 118 1229 l 325 1229 m 274 1164 l 211 1164 l 258 1046 l 296 1046 l 274 1164 z "},"î":{"ha":553,"x_min":63,"x_max":490,"o":"m 478 926 l 478 685 l 414 685 l 414 243 l 478 243 l 478 0 l 74 0 l 74 243 l 138 243 l 138 685 l 74 685 l 74 926 l 478 926 m 396 847 l 157 847 l 157 763 l 219 763 l 219 163 l 157 163 l 157 81 l 396 81 l 396 163 l 332 163 l 332 763 l 396 763 l 396 847 m 336 1229 l 490 983 l 319 983 l 274 1025 l 232 983 l 63 983 l 215 1229 l 336 1229 m 300 1169 l 253 1169 l 168 1038 l 210 1038 l 274 1101 l 342 1038 l 383 1038 l 300 1169 z "},"ï":{"ha":553,"x_min":74,"x_max":478,"o":"m 478 926 l 478 685 l 414 685 l 414 243 l 478 243 l 478 0 l 74 0 l 74 243 l 138 243 l 138 685 l 74 685 l 74 926 l 478 926 m 396 847 l 157 847 l 157 763 l 219 763 l 219 163 l 157 163 l 157 81 l 396 81 l 396 163 l 332 163 l 332 763 l 396 763 l 396 847 m 464 1139 l 464 1044 l 428 1008 l 335 1008 l 300 1044 l 300 1139 l 335 1176 l 428 1176 l 464 1139 m 410 1119 l 354 1119 l 354 1065 l 410 1065 l 410 1119 m 254 1139 l 254 1044 l 217 1008 l 125 1008 l 88 1044 l 88 1139 l 125 1176 l 217 1176 l 254 1139 m 197 1119 l 143 1119 l 143 1065 l 197 1065 l 197 1119 z "},"ñ":{"ha":982,"x_min":74,"x_max":931,"o":"m 931 926 l 931 685 l 867 685 l 867 0 l 624 0 l 374 464 l 374 238 l 447 238 l 447 0 l 74 0 l 74 243 l 139 243 l 139 685 l 74 685 l 74 926 l 410 926 l 632 510 l 632 694 l 567 694 l 567 926 l 931 926 m 849 847 l 643 847 l 643 763 l 700 763 l 700 238 l 358 847 l 157 847 l 157 763 l 222 763 l 222 163 l 157 163 l 157 81 l 369 81 l 369 163 l 306 163 l 306 735 l 672 81 l 785 81 l 785 763 l 849 763 l 849 847 m 688 1218 l 688 1067 l 626 1006 l 450 1006 l 450 968 l 293 968 l 293 1113 l 361 1181 l 542 1181 l 542 1218 l 688 1218 m 632 1164 l 588 1164 l 588 1118 l 383 1118 l 356 1090 l 356 1025 l 403 1025 l 403 1071 l 607 1071 l 632 1096 l 632 1164 z "},"ó":{"ha":776,"x_min":51,"x_max":726,"o":"m 532 708 l 532 218 l 478 163 l 294 163 l 244 218 l 244 708 l 300 763 l 478 763 l 532 708 m 450 685 l 325 685 l 325 243 l 450 243 l 450 685 m 726 763 l 726 163 l 563 0 l 211 0 l 51 163 l 51 767 l 215 926 l 563 926 l 726 763 m 643 729 l 525 847 l 254 847 l 132 729 l 132 200 l 244 81 l 525 81 l 643 196 l 643 729 m 335 1229 l 542 1229 l 442 982 l 292 982 l 335 1229 m 385 1164 l 364 1046 l 401 1046 l 449 1164 l 385 1164 z "},"ò":{"ha":776,"x_min":51,"x_max":726,"o":"m 532 708 l 532 218 l 478 163 l 294 163 l 244 218 l 244 708 l 300 763 l 478 763 l 532 708 m 450 685 l 325 685 l 325 243 l 450 243 l 450 685 m 726 763 l 726 163 l 563 0 l 211 0 l 51 163 l 51 767 l 215 926 l 563 926 l 726 763 m 643 729 l 525 847 l 254 847 l 132 729 l 132 200 l 244 81 l 525 81 l 643 196 l 643 729 m 439 1229 l 482 982 l 332 982 l 232 1229 l 439 1229 m 388 1164 l 325 1164 l 372 1046 l 410 1046 l 388 1164 z "},"ô":{"ha":776,"x_min":51,"x_max":726,"o":"m 532 708 l 532 218 l 478 163 l 294 163 l 244 218 l 244 708 l 300 763 l 478 763 l 532 708 m 450 685 l 325 685 l 325 243 l 450 243 l 450 685 m 726 763 l 726 163 l 563 0 l 211 0 l 51 163 l 51 767 l 215 926 l 563 926 l 726 763 m 643 729 l 525 847 l 254 847 l 132 729 l 132 200 l 244 81 l 525 81 l 643 196 l 643 729 m 449 1229 l 603 983 l 432 983 l 386 1025 l 344 983 l 175 983 l 328 1229 l 449 1229 m 413 1169 l 365 1169 l 281 1038 l 322 1038 l 386 1101 l 454 1038 l 496 1038 l 413 1169 z "},"ö":{"ha":776,"x_min":51,"x_max":726,"o":"m 532 708 l 532 218 l 478 163 l 294 163 l 244 218 l 244 708 l 300 763 l 478 763 l 532 708 m 450 685 l 325 685 l 325 243 l 450 243 l 450 685 m 726 763 l 726 163 l 563 0 l 211 0 l 51 163 l 51 767 l 215 926 l 563 926 l 726 763 m 643 729 l 525 847 l 254 847 l 132 729 l 132 200 l 244 81 l 525 81 l 643 196 l 643 729 m 588 1139 l 588 1044 l 551 1008 l 457 1008 l 422 1044 l 422 1139 l 457 1176 l 551 1176 l 588 1139 m 533 1119 l 476 1119 l 476 1065 l 533 1065 l 533 1119 m 358 1139 l 358 1044 l 321 1008 l 229 1008 l 192 1044 l 192 1139 l 229 1176 l 321 1176 l 358 1139 m 301 1119 l 247 1119 l 247 1065 l 301 1065 l 301 1119 z "},"õ":{"ha":776,"x_min":51,"x_max":726,"o":"m 532 708 l 532 218 l 478 163 l 294 163 l 244 218 l 244 708 l 300 763 l 478 763 l 532 708 m 450 685 l 325 685 l 325 243 l 450 243 l 450 685 m 726 763 l 726 163 l 563 0 l 211 0 l 51 163 l 51 767 l 215 926 l 563 926 l 726 763 m 643 729 l 525 847 l 254 847 l 132 729 l 132 200 l 244 81 l 525 81 l 643 196 l 643 729 m 586 1218 l 586 1067 l 525 1006 l 349 1006 l 349 968 l 192 968 l 192 1113 l 260 1181 l 440 1181 l 440 1218 l 586 1218 m 531 1164 l 486 1164 l 486 1118 l 282 1118 l 254 1090 l 254 1025 l 301 1025 l 301 1071 l 506 1071 l 531 1096 l 531 1164 z "},"ú":{"ha":903,"x_min":46,"x_max":856,"o":"m 856 926 l 856 685 l 782 685 l 782 163 l 619 0 l 279 0 l 118 163 l 118 685 l 46 685 l 46 926 l 432 926 l 432 693 l 396 693 l 396 243 l 507 243 l 507 693 l 471 693 l 471 926 l 856 926 m 774 847 l 544 847 l 544 763 l 589 763 l 589 215 l 536 163 l 364 163 l 314 215 l 314 763 l 358 763 l 358 847 l 129 847 l 129 763 l 201 763 l 201 197 l 314 81 l 583 81 l 700 192 l 700 763 l 774 763 l 774 847 m 397 1229 l 604 1229 l 504 982 l 354 982 l 397 1229 m 447 1164 l 426 1046 l 464 1046 l 511 1164 l 447 1164 z "},"ù":{"ha":903,"x_min":46,"x_max":856,"o":"m 856 926 l 856 685 l 782 685 l 782 163 l 619 0 l 279 0 l 118 163 l 118 685 l 46 685 l 46 926 l 432 926 l 432 693 l 396 693 l 396 243 l 507 243 l 507 693 l 471 693 l 471 926 l 856 926 m 774 847 l 544 847 l 544 763 l 589 763 l 589 215 l 536 163 l 364 163 l 314 215 l 314 763 l 358 763 l 358 847 l 129 847 l 129 763 l 201 763 l 201 197 l 314 81 l 583 81 l 700 192 l 700 763 l 774 763 l 774 847 m 501 1229 l 544 982 l 394 982 l 294 1229 l 501 1229 m 450 1164 l 388 1164 l 435 1046 l 472 1046 l 450 1164 z "},"û":{"ha":903,"x_min":46,"x_max":856,"o":"m 856 926 l 856 685 l 782 685 l 782 163 l 619 0 l 279 0 l 118 163 l 118 685 l 46 685 l 46 926 l 432 926 l 432 693 l 396 693 l 396 243 l 507 243 l 507 693 l 471 693 l 471 926 l 856 926 m 774 847 l 544 847 l 544 763 l 589 763 l 589 215 l 536 163 l 364 163 l 314 215 l 314 763 l 358 763 l 358 847 l 129 847 l 129 763 l 201 763 l 201 197 l 314 81 l 583 81 l 700 192 l 700 763 l 774 763 l 774 847 m 511 1229 l 665 983 l 494 983 l 449 1025 l 407 983 l 238 983 l 390 1229 l 511 1229 m 475 1169 l 428 1169 l 343 1038 l 385 1038 l 449 1101 l 517 1038 l 558 1038 l 475 1169 z "},"ü":{"ha":903,"x_min":46,"x_max":856,"o":"m 856 926 l 856 685 l 782 685 l 782 163 l 619 0 l 279 0 l 118 163 l 118 685 l 46 685 l 46 926 l 432 926 l 432 693 l 396 693 l 396 243 l 507 243 l 507 693 l 471 693 l 471 926 l 856 926 m 774 847 l 544 847 l 544 763 l 589 763 l 589 215 l 536 163 l 364 163 l 314 215 l 314 763 l 358 763 l 358 847 l 129 847 l 129 763 l 201 763 l 201 197 l 314 81 l 583 81 l 700 192 l 700 763 l 774 763 l 774 847 m 650 1139 l 650 1044 l 614 1008 l 519 1008 l 485 1044 l 485 1139 l 519 1176 l 614 1176 l 650 1139 m 596 1119 l 539 1119 l 539 1065 l 596 1065 l 596 1119 m 421 1139 l 421 1044 l 383 1008 l 292 1008 l 254 1044 l 254 1139 l 292 1176 l 383 1176 l 421 1139 m 364 1119 l 310 1119 l 310 1065 l 364 1065 l 364 1119 z "},"†":{"ha":778,"x_min":101,"x_max":675,"o":"m 257 -72 l 257 504 l 101 504 l 101 750 l 257 750 l 257 997 l 519 997 l 519 750 l 675 750 l 675 504 l 519 504 l 519 -72 l 257 -72 m 338 8 l 439 8 l 439 585 l 594 585 l 594 669 l 439 669 l 439 917 l 338 917 l 338 669 l 182 669 l 182 585 l 338 585 l 338 8 z "},"°":{"ha":532,"x_min":58,"x_max":475,"o":"m 353 761 l 353 672 l 315 632 l 219 632 l 181 672 l 181 767 l 219 804 l 310 804 l 353 761 m 301 753 l 233 753 l 233 685 l 301 685 l 301 753 m 475 824 l 475 614 l 372 511 l 161 511 l 58 614 l 58 824 l 161 926 l 372 926 l 475 824 m 419 801 l 351 869 l 186 869 l 118 801 l 118 636 l 186 569 l 351 569 l 419 636 l 419 801 z "},"¢":{"ha":778,"x_min":76,"x_max":699,"o":"m 699 393 l 699 224 l 531 60 l 475 60 l 475 -15 l 281 -15 l 281 60 l 225 60 l 76 228 l 76 663 l 225 819 l 281 819 l 281 896 l 475 896 l 475 819 l 540 819 l 699 656 l 699 508 l 442 508 l 442 578 l 339 578 l 339 308 l 442 308 l 442 393 l 699 393 m 617 326 l 524 326 l 524 281 l 468 224 l 308 224 l 256 281 l 256 606 l 301 656 l 475 656 l 524 606 l 524 574 l 617 574 l 617 625 l 504 740 l 410 740 l 410 833 l 344 833 l 344 740 l 268 740 l 160 625 l 160 264 l 258 140 l 344 140 l 344 50 l 410 50 l 410 140 l 493 140 l 617 264 l 617 326 z "},"£":{"ha":778,"x_min":32,"x_max":747,"o":"m 747 363 l 747 0 l 32 0 l 32 243 l 96 243 l 96 353 l 32 353 l 32 576 l 96 576 l 96 763 l 260 926 l 561 926 l 719 763 l 719 607 l 468 607 l 468 685 l 371 685 l 371 574 l 460 574 l 460 353 l 371 353 l 371 243 l 500 243 l 500 363 l 747 363 m 667 289 l 582 289 l 582 163 l 290 163 l 290 422 l 386 422 l 386 507 l 290 507 l 290 708 l 346 763 l 489 763 l 546 708 l 546 681 l 640 681 l 640 731 l 526 847 l 297 847 l 181 731 l 181 507 l 114 507 l 114 422 l 181 422 l 181 163 l 114 163 l 114 81 l 667 81 l 667 289 z "},"§":{"ha":778,"x_min":85,"x_max":692,"o":"m 325 576 l 539 478 l 539 460 l 451 357 l 238 457 l 238 472 l 325 576 m 425 419 l 460 463 l 351 514 l 317 472 l 425 419 m 669 726 l 442 726 l 442 774 l 338 774 l 338 750 l 692 586 l 692 413 l 636 354 l 669 339 l 669 31 l 525 -72 l 239 -72 l 108 35 l 108 208 l 338 208 l 338 153 l 442 153 l 442 185 l 85 353 l 85 521 l 129 579 l 108 589 l 108 897 l 242 997 l 536 997 l 669 897 l 669 726 m 590 792 l 590 858 l 511 918 l 267 918 l 188 858 l 188 639 l 257 606 l 164 492 l 164 404 l 511 239 l 511 110 l 482 88 l 296 88 l 267 110 l 267 143 l 188 143 l 188 72 l 267 7 l 500 7 l 590 72 l 590 289 l 511 326 l 613 442 l 613 536 l 267 694 l 267 825 l 283 839 l 494 839 l 511 825 l 511 792 l 590 792 z "},"•":{"ha":926,"x_min":272,"x_max":657,"o":"m 467 663 q 601 607 546 663 q 657 471 657 551 q 601 335 657 392 q 467 278 546 278 q 328 334 385 278 q 272 471 272 390 q 328 606 272 550 q 467 663 385 663 z "},"¶":{"ha":778,"x_min":82,"x_max":676,"o":"m 229 -72 l 229 415 l 186 415 l 82 549 l 82 863 l 186 997 l 676 997 l 676 756 l 632 756 l 632 -72 l 229 -72 m 310 8 l 390 8 l 390 836 l 471 836 l 471 8 l 551 8 l 551 836 l 596 836 l 596 917 l 226 917 l 163 836 l 163 576 l 226 496 l 310 496 l 310 8 z "},"ß":{"ha":1528,"x_min":51,"x_max":1478,"o":"m 714 474 l 714 163 l 549 0 l 213 0 l 58 157 l 58 326 l 326 326 l 326 243 l 439 243 l 439 375 l 175 375 l 51 503 l 51 768 l 213 926 l 557 926 l 703 778 l 703 625 l 446 625 l 446 685 l 326 685 l 326 596 l 596 596 l 714 474 m 633 440 l 551 522 l 276 522 l 244 554 l 244 711 l 297 763 l 472 763 l 521 711 l 521 697 l 633 697 l 633 732 l 521 847 l 251 847 l 135 732 l 135 535 l 219 449 l 492 449 l 521 417 l 521 217 l 465 163 l 297 163 l 244 217 l 244 256 l 135 256 l 135 199 l 251 81 l 510 81 l 633 199 l 633 440 m 1478 474 l 1478 163 l 1313 0 l 976 0 l 822 157 l 822 326 l 1090 326 l 1090 243 l 1203 243 l 1203 375 l 939 375 l 815 503 l 815 768 l 976 926 l 1321 926 l 1467 778 l 1467 625 l 1210 625 l 1210 685 l 1090 685 l 1090 596 l 1360 596 l 1478 474 m 1397 440 l 1315 522 l 1040 522 l 1008 554 l 1008 711 l 1061 763 l 1236 763 l 1285 711 l 1285 697 l 1397 697 l 1397 732 l 1285 847 l 1015 847 l 899 732 l 899 535 l 983 449 l 1256 449 l 1285 417 l 1285 217 l 1229 163 l 1061 163 l 1008 217 l 1008 256 l 899 256 l 899 199 l 1015 81 l 1274 81 l 1397 199 l 1397 440 z "},"®":{"ha":1028,"x_min":51,"x_max":978,"o":"m 593 599 l 593 519 l 564 490 l 454 490 l 454 624 l 567 624 l 593 599 m 646 146 l 383 146 l 197 332 l 197 594 l 383 779 l 646 779 l 831 594 l 831 332 l 646 146 m 713 292 l 685 292 l 615 442 l 679 500 l 679 631 l 604 706 l 329 706 l 329 633 l 368 633 l 368 292 l 329 292 l 329 219 l 482 219 l 482 292 l 454 292 l 454 426 l 533 426 l 596 292 l 571 292 l 571 219 l 713 219 l 713 292 m 706 0 l 322 0 l 51 271 l 51 656 l 322 926 l 706 926 l 978 656 l 978 271 l 706 0 m 676 74 l 904 301 l 904 625 l 676 853 l 353 853 l 125 625 l 125 301 l 353 74 l 676 74 z "},"©":{"ha":1028,"x_min":51,"x_max":978,"o":"m 644 146 l 383 146 l 197 332 l 197 594 l 383 779 l 644 779 l 831 594 l 831 332 l 644 146 m 671 376 l 592 376 l 592 321 l 564 292 l 465 292 l 438 321 l 438 608 l 465 633 l 568 633 l 592 608 l 592 561 l 671 561 l 671 631 l 597 706 l 433 706 l 357 631 l 357 300 l 433 219 l 592 219 l 671 300 l 671 376 m 706 0 l 322 0 l 51 271 l 51 656 l 322 926 l 706 926 l 978 656 l 978 271 l 706 0 m 676 74 l 904 301 l 904 625 l 676 853 l 353 853 l 125 625 l 125 301 l 353 74 l 676 74 z "},"™":{"ha":1251,"x_min":24,"x_max":1189,"o":"m 529 926 l 529 679 l 389 679 l 389 564 l 424 564 l 424 369 l 128 369 l 128 564 l 163 564 l 163 679 l 24 679 l 24 926 l 529 926 m 456 853 l 97 853 l 97 743 l 157 743 l 157 794 l 236 794 l 236 501 l 201 501 l 201 443 l 350 443 l 350 501 l 315 501 l 315 794 l 394 794 l 394 743 l 456 743 l 456 853 m 1189 926 l 1189 731 l 1156 731 l 1156 564 l 1189 564 l 1189 369 l 903 369 l 903 521 l 863 521 l 863 369 l 578 369 l 578 564 l 611 564 l 611 731 l 578 731 l 578 926 l 815 926 l 883 826 l 944 926 l 1189 926 m 1115 853 l 996 853 l 882 685 l 774 853 l 651 853 l 651 794 l 685 794 l 685 501 l 651 501 l 651 443 l 789 443 l 789 501 l 756 501 l 756 760 l 863 594 l 901 594 l 1011 757 l 1011 501 l 976 501 l 976 443 l 1115 443 l 1115 501 l 1082 501 l 1082 794 l 1115 794 l 1115 853 z "},"´":{"ha":694,"x_min":250,"x_max":500,"o":"m 293 1229 l 500 1229 l 400 982 l 250 982 l 293 1229 m 343 1164 l 322 1046 l 360 1046 l 407 1164 l 343 1164 z "},"Æ":{"ha":1275,"x_min":14,"x_max":1224,"o":"m 661 763 l 661 421 l 394 421 l 583 763 l 661 763 m 583 611 l 514 482 l 583 482 l 583 611 m 1224 926 l 1224 629 l 975 629 l 975 685 l 854 685 l 854 585 l 1076 585 l 1076 347 l 854 347 l 854 243 l 975 243 l 975 308 l 1224 308 l 1224 0 l 535 0 l 535 236 l 583 236 l 583 285 l 404 285 l 378 236 l 404 236 l 404 0 l 14 0 l 14 243 l 100 243 l 472 926 l 1224 926 m 1139 847 l 524 847 l 149 163 l 108 163 l 108 81 l 319 81 l 319 163 l 254 163 l 356 347 l 661 347 l 661 163 l 617 163 l 617 81 l 1139 81 l 1139 229 l 1057 229 l 1057 163 l 774 163 l 774 432 l 994 432 l 994 507 l 774 507 l 774 763 l 1057 763 l 1057 708 l 1139 708 l 1139 847 z "},"Ø":{"ha":799,"x_min":32,"x_max":769,"o":"m 542 711 l 542 221 l 489 163 l 307 163 l 253 221 l 253 711 l 307 763 l 489 763 l 542 711 m 458 685 l 335 685 l 335 243 l 458 243 l 458 685 m 717 783 l 736 763 l 736 163 l 569 0 l 222 0 l 207 18 l 179 -26 l 32 71 l 81 143 l 60 163 l 60 763 l 222 926 l 574 926 l 590 910 l 624 960 l 769 861 l 717 783 m 628 756 l 685 842 l 635 875 l 583 800 l 535 847 l 260 847 l 142 732 l 142 199 l 168 172 l 117 92 l 168 61 l 211 129 l 260 81 l 535 81 l 651 199 l 651 732 l 628 756 z "},"±":{"ha":778,"x_min":49,"x_max":728,"o":"m 510 717 l 728 717 l 728 475 l 510 475 l 510 283 l 268 283 l 268 475 l 49 475 l 49 717 l 268 717 l 268 907 l 510 907 l 510 717 m 429 636 l 429 826 l 349 826 l 349 636 l 129 636 l 129 556 l 349 556 l 349 364 l 429 364 l 429 556 l 647 556 l 647 636 l 429 636 m 728 242 l 728 0 l 49 0 l 49 242 l 728 242 m 647 161 l 129 161 l 129 81 l 647 81 l 647 161 z "},"¥":{"ha":778,"x_min":-7,"x_max":785,"o":"m 785 926 l 785 685 l 703 685 l 646 575 l 711 575 l 711 351 l 526 351 l 526 243 l 592 243 l 592 0 l 186 0 l 186 243 l 251 243 l 251 351 l 67 351 l 67 575 l 132 575 l 75 685 l -7 685 l -7 926 l 363 926 l 363 699 l 335 699 l 392 592 l 449 699 l 421 699 l 421 926 l 785 926 m 703 847 l 500 847 l 500 763 l 546 763 l 390 465 l 231 763 l 279 763 l 279 847 l 75 847 l 75 763 l 124 763 l 263 504 l 149 504 l 149 421 l 308 421 l 335 372 l 335 164 l 269 164 l 269 81 l 510 81 l 510 164 l 444 164 l 444 372 l 469 421 l 629 421 l 629 504 l 515 504 l 651 763 l 703 763 l 703 847 z "},"ª":{"ha":535,"x_min":58,"x_max":478,"o":"m 324 800 l 324 719 l 208 719 l 208 800 l 324 800 m 478 926 l 478 593 l 314 593 l 314 621 l 282 593 l 156 593 l 58 669 l 58 856 l 161 926 l 282 926 l 314 899 l 314 926 l 478 926 m 404 658 l 404 861 l 324 861 l 324 833 l 293 861 l 192 861 l 132 821 l 132 700 l 186 658 l 288 658 l 324 686 l 324 658 l 404 658 m 478 538 l 478 354 l 58 354 l 58 538 l 478 538 m 404 472 l 131 472 l 131 419 l 404 419 l 404 472 z "},"º":{"ha":535,"x_min":58,"x_max":478,"o":"m 208 719 l 208 800 l 328 800 l 328 719 l 208 719 m 156 593 l 58 669 l 58 856 l 161 926 l 375 926 l 478 856 l 478 669 l 381 593 l 156 593 m 186 658 l 350 658 l 404 700 l 404 821 l 344 861 l 192 861 l 132 821 l 132 700 l 186 658 m 478 538 l 478 354 l 58 354 l 58 538 l 478 538 m 404 472 l 131 472 l 131 419 l 404 419 l 404 472 z "},"æ":{"ha":1275,"x_min":14,"x_max":1224,"o":"m 661 763 l 661 421 l 394 421 l 583 763 l 661 763 m 583 611 l 514 482 l 583 482 l 583 611 m 1224 926 l 1224 629 l 975 629 l 975 685 l 854 685 l 854 585 l 1076 585 l 1076 347 l 854 347 l 854 243 l 975 243 l 975 308 l 1224 308 l 1224 0 l 535 0 l 535 236 l 583 236 l 583 285 l 404 285 l 378 236 l 404 236 l 404 0 l 14 0 l 14 243 l 100 243 l 472 926 l 1224 926 m 1139 847 l 524 847 l 149 163 l 108 163 l 108 81 l 319 81 l 319 163 l 254 163 l 356 347 l 661 347 l 661 163 l 617 163 l 617 81 l 1139 81 l 1139 229 l 1057 229 l 1057 163 l 774 163 l 774 432 l 994 432 l 994 507 l 774 507 l 774 763 l 1057 763 l 1057 708 l 1139 708 l 1139 847 z "},"ø":{"ha":799,"x_min":32,"x_max":769,"o":"m 542 711 l 542 221 l 489 163 l 307 163 l 253 221 l 253 711 l 307 763 l 489 763 l 542 711 m 458 685 l 335 685 l 335 243 l 458 243 l 458 685 m 717 783 l 736 763 l 736 163 l 569 0 l 222 0 l 207 18 l 179 -26 l 32 71 l 81 143 l 60 163 l 60 763 l 222 926 l 574 926 l 590 910 l 624 960 l 769 861 l 717 783 m 628 756 l 685 842 l 635 875 l 583 800 l 535 847 l 260 847 l 142 732 l 142 199 l 168 172 l 117 92 l 168 61 l 211 129 l 260 81 l 535 81 l 651 199 l 651 732 l 628 756 z "},"¿":{"ha":700,"x_min":42,"x_max":649,"o":"m 42 164 l 42 418 l 204 581 l 269 581 l 269 640 l 531 640 l 531 438 l 439 347 l 300 347 l 300 242 l 392 242 l 392 317 l 649 317 l 649 143 l 501 0 l 204 0 l 42 164 m 125 200 l 243 79 l 469 79 l 567 178 l 567 247 l 475 247 l 475 219 l 421 164 l 269 164 l 218 219 l 218 371 l 269 422 l 399 422 l 449 472 l 449 571 l 357 571 l 357 524 l 338 506 l 243 506 l 125 389 l 125 200 m 269 683 l 269 926 l 531 926 l 531 683 l 269 683 m 346 751 l 457 751 l 457 861 l 346 861 l 346 751 z "},"¡":{"ha":450,"x_min":60,"x_max":389,"o":"m 389 0 l 60 0 l 119 638 l 328 638 l 389 0 m 304 79 l 256 569 l 192 569 l 146 79 l 304 79 m 351 682 l 94 682 l 94 926 l 351 926 l 351 682 m 279 749 l 279 861 l 167 861 l 167 749 l 279 749 z "},"ƒ":{"ha":778,"x_min":39,"x_max":701,"o":"m 701 1018 l 701 775 l 576 775 l 553 642 l 636 642 l 636 396 l 510 396 l 429 -62 l 317 -185 l 39 -185 l 39 58 l 176 58 l 236 396 l 160 396 l 160 642 l 279 642 l 325 900 l 439 1018 l 701 1018 m 621 938 l 472 938 l 400 863 l 347 561 l 240 561 l 240 476 l 332 476 l 250 7 l 221 -22 l 119 -22 l 119 -104 l 282 -104 l 354 -25 l 443 476 l 556 476 l 556 561 l 457 561 l 504 826 l 532 856 l 621 856 l 621 938 z "},"«":{"ha":693,"x_min":60,"x_max":632,"o":"m 632 708 l 560 472 l 632 219 l 435 219 l 329 472 l 435 708 l 632 708 m 547 643 l 476 643 l 399 472 l 476 285 l 547 285 l 490 472 l 547 643 m 361 708 l 288 472 l 361 219 l 165 219 l 60 472 l 165 708 l 361 708 m 275 643 l 206 643 l 129 472 l 206 285 l 275 285 l 219 472 l 275 643 z "},"»":{"ha":692,"x_min":60,"x_max":631,"o":"m 526 707 l 631 457 l 526 218 l 331 218 l 404 457 l 331 707 l 526 707 m 486 643 l 417 643 l 472 457 l 417 282 l 486 282 l 564 457 l 486 643 m 257 707 l 363 457 l 257 218 l 60 218 l 132 457 l 60 707 l 257 707 m 214 643 l 146 643 l 200 457 l 146 282 l 218 282 l 294 457 l 214 643 z "}," ":{"ha":694,"x_min":0,"x_max":0,"o":""},"À":{"ha":886,"x_min":14,"x_max":872,"o":"m 449 763 l 556 418 l 321 418 l 433 763 l 449 763 m 440 576 l 408 481 l 471 481 l 440 576 m 579 926 l 789 243 l 872 243 l 872 0 l 483 0 l 483 233 l 543 233 l 526 286 l 350 286 l 333 233 l 390 233 l 390 0 l 14 0 l 14 243 l 90 243 l 317 926 l 579 926 m 517 847 l 375 847 l 150 163 l 97 163 l 97 81 l 304 81 l 304 163 l 236 163 l 296 346 l 579 346 l 636 163 l 571 163 l 571 81 l 789 81 l 789 163 l 732 163 l 517 847 m 493 1229 l 536 982 l 386 982 l 286 1229 l 493 1229 m 442 1164 l 379 1164 l 426 1046 l 464 1046 l 442 1164 z "},"Ã":{"ha":886,"x_min":14,"x_max":872,"o":"m 449 763 l 556 418 l 321 418 l 433 763 l 449 763 m 440 576 l 408 481 l 471 481 l 440 576 m 579 926 l 789 243 l 872 243 l 872 0 l 483 0 l 483 233 l 543 233 l 526 286 l 350 286 l 333 233 l 390 233 l 390 0 l 14 0 l 14 243 l 90 243 l 317 926 l 579 926 m 517 847 l 375 847 l 150 163 l 97 163 l 97 81 l 304 81 l 304 163 l 236 163 l 296 346 l 579 346 l 636 163 l 571 163 l 571 81 l 789 81 l 789 163 l 732 163 l 517 847 m 640 1218 l 640 1067 l 579 1006 l 403 1006 l 403 968 l 246 968 l 246 1113 l 314 1181 l 494 1181 l 494 1218 l 640 1218 m 585 1164 l 540 1164 l 540 1118 l 336 1118 l 308 1090 l 308 1025 l 356 1025 l 356 1071 l 560 1071 l 585 1096 l 585 1164 z "},"Õ":{"ha":776,"x_min":51,"x_max":726,"o":"m 532 708 l 532 218 l 478 163 l 294 163 l 244 218 l 244 708 l 300 763 l 478 763 l 532 708 m 450 685 l 325 685 l 325 243 l 450 243 l 450 685 m 726 763 l 726 163 l 563 0 l 211 0 l 51 163 l 51 767 l 215 926 l 563 926 l 726 763 m 643 729 l 525 847 l 254 847 l 132 729 l 132 200 l 244 81 l 525 81 l 643 196 l 643 729 m 586 1218 l 586 1067 l 525 1006 l 349 1006 l 349 968 l 192 968 l 192 1113 l 260 1181 l 440 1181 l 440 1218 l 586 1218 m 531 1164 l 486 1164 l 486 1118 l 282 1118 l 254 1090 l 254 1025 l 301 1025 l 301 1071 l 506 1071 l 531 1096 l 531 1164 z "},"Œ":{"ha":1149,"x_min":51,"x_max":1097,"o":"m 535 763 l 535 163 l 300 163 l 246 218 l 246 708 l 300 763 l 535 763 m 451 685 l 329 685 l 329 243 l 451 243 l 451 685 m 1097 926 l 1097 629 l 849 629 l 849 685 l 728 685 l 728 585 l 950 585 l 950 351 l 728 351 l 728 243 l 849 243 l 849 308 l 1097 308 l 1097 0 l 213 0 l 51 163 l 51 763 l 213 926 l 1097 926 m 1015 847 l 253 847 l 136 732 l 136 197 l 253 81 l 1015 81 l 1015 229 l 931 229 l 931 163 l 646 163 l 646 431 l 868 431 l 868 507 l 646 507 l 646 763 l 931 763 l 931 707 l 1015 707 l 1015 847 z "},"œ":{"ha":1149,"x_min":51,"x_max":1097,"o":"m 535 763 l 535 163 l 300 163 l 246 218 l 246 708 l 300 763 l 535 763 m 451 685 l 329 685 l 329 243 l 451 243 l 451 685 m 1097 926 l 1097 629 l 849 629 l 849 685 l 728 685 l 728 585 l 950 585 l 950 351 l 728 351 l 728 243 l 849 243 l 849 308 l 1097 308 l 1097 0 l 213 0 l 51 163 l 51 763 l 213 926 l 1097 926 m 1015 847 l 253 847 l 136 732 l 136 197 l 253 81 l 1015 81 l 1015 229 l 931 229 l 931 163 l 646 163 l 646 431 l 868 431 l 868 507 l 646 507 l 646 763 l 931 763 l 931 707 l 1015 707 l 1015 847 z "},"–":{"ha":778,"x_min":58,"x_max":719,"o":"m 719 581 l 719 342 l 58 342 l 58 581 l 719 581 m 638 510 l 140 510 l 140 415 l 638 415 l 638 510 z "},"—":{"ha":838,"x_min":0,"x_max":838,"o":"m 838 581 l 838 342 l 0 342 l 0 581 l 838 581 m 756 510 l 82 510 l 82 415 l 756 415 l 756 510 z "},"“":{"ha":611,"x_min":42,"x_max":542,"o":"m 42 608 l 131 926 l 274 926 l 274 608 l 42 608 m 122 668 l 214 668 l 214 867 l 176 867 l 122 668 m 311 608 l 399 926 l 542 926 l 542 608 l 311 608 m 390 668 l 482 668 l 482 867 l 446 867 l 390 668 z "},"”":{"ha":611,"x_min":69,"x_max":569,"o":"m 569 926 l 481 608 l 338 608 l 338 926 l 569 926 m 489 867 l 397 867 l 397 668 l 435 668 l 489 867 m 300 926 l 213 608 l 69 608 l 69 926 l 300 926 m 221 867 l 129 867 l 129 668 l 165 668 l 221 867 z "},"‘":{"ha":340,"x_min":40,"x_max":271,"o":"m 40 606 l 128 926 l 271 926 l 271 606 l 40 606 m 121 667 l 211 667 l 211 865 l 174 865 l 121 667 z "},"’":{"ha":340,"x_min":69,"x_max":300,"o":"m 300 926 l 213 606 l 69 606 l 69 926 l 300 926 m 219 865 l 129 865 l 129 667 l 167 667 l 219 865 z "},"÷":{"ha":778,"x_min":49,"x_max":728,"o":"m 728 583 l 728 369 l 49 369 l 49 583 l 728 583 m 656 517 l 121 517 l 121 436 l 656 436 l 656 517 m 517 881 l 517 646 l 260 646 l 260 881 l 517 881 m 444 815 l 333 815 l 333 713 l 444 713 l 444 815 m 517 307 l 517 72 l 260 72 l 260 307 l 517 307 m 444 242 l 333 242 l 333 139 l 444 139 l 444 242 z "},"◊":{"ha":926,"x_min":103,"x_max":824,"o":"m 464 963 l 824 464 l 464 -36 l 103 464 l 464 963 m 464 839 l 190 464 l 464 88 l 738 464 l 464 839 z "},"ÿ":{"ha":810,"x_min":10,"x_max":801,"o":"m 801 926 l 801 685 l 719 685 l 543 350 l 543 243 l 608 243 l 608 0 l 203 0 l 203 243 l 268 243 l 268 350 l 92 685 l 10 685 l 10 926 l 379 926 l 379 699 l 351 699 l 408 592 l 465 699 l 438 699 l 438 926 l 801 926 m 719 847 l 517 847 l 517 763 l 563 763 l 407 465 l 247 763 l 296 763 l 296 847 l 92 847 l 92 763 l 142 763 l 351 372 l 351 163 l 286 163 l 286 81 l 526 81 l 526 163 l 461 163 l 461 372 l 668 763 l 719 763 l 719 847 m 604 1139 l 604 1044 l 568 1008 l 474 1008 l 439 1044 l 439 1139 l 474 1176 l 568 1176 l 604 1139 m 550 1119 l 493 1119 l 493 1065 l 550 1065 l 550 1119 m 375 1139 l 375 1044 l 338 1008 l 246 1008 l 208 1044 l 208 1139 l 246 1176 l 338 1176 l 375 1139 m 318 1119 l 264 1119 l 264 1065 l 318 1065 l 318 1119 z "},"Ÿ":{"ha":810,"x_min":10,"x_max":801,"o":"m 801 926 l 801 685 l 719 685 l 543 350 l 543 243 l 608 243 l 608 0 l 203 0 l 203 243 l 268 243 l 268 350 l 92 685 l 10 685 l 10 926 l 379 926 l 379 699 l 351 699 l 408 592 l 465 699 l 438 699 l 438 926 l 801 926 m 719 847 l 517 847 l 517 763 l 563 763 l 407 465 l 247 763 l 296 763 l 296 847 l 92 847 l 92 763 l 142 763 l 351 372 l 351 163 l 286 163 l 286 81 l 526 81 l 526 163 l 461 163 l 461 372 l 668 763 l 719 763 l 719 847 m 604 1139 l 604 1044 l 568 1008 l 474 1008 l 439 1044 l 439 1139 l 474 1176 l 568 1176 l 604 1139 m 550 1119 l 493 1119 l 493 1065 l 550 1065 l 550 1119 m 375 1139 l 375 1044 l 338 1008 l 246 1008 l 208 1044 l 208 1139 l 246 1176 l 338 1176 l 375 1139 m 318 1119 l 264 1119 l 264 1065 l 318 1065 l 318 1119 z "},"∕":{"ha":306,"x_min":-160,"x_max":467,"o":"m 467 926 l 74 0 l -160 0 l 233 926 l 467 926 m 353 868 l 293 868 l -49 65 l 13 65 l 353 868 z "},"¤":{"ha":778,"x_min":28,"x_max":750,"o":"m 447 613 l 526 533 l 526 419 l 447 339 l 332 339 l 251 419 l 251 533 l 331 613 l 447 613 m 417 540 l 361 540 l 324 503 l 324 450 l 363 413 l 417 413 l 454 450 l 454 503 l 417 540 m 749 286 l 579 117 l 517 181 l 261 181 l 199 118 l 31 288 l 92 349 l 92 603 l 28 667 l 196 835 l 258 772 l 518 772 l 581 835 l 750 667 l 686 603 l 686 347 l 749 286 m 571 351 l 607 386 l 607 565 l 572 600 l 638 667 l 581 724 l 515 657 l 481 693 l 297 693 l 261 658 l 196 724 l 139 667 l 204 601 l 171 567 l 171 388 l 207 353 l 142 288 l 199 231 l 264 296 l 300 260 l 479 260 l 514 294 l 579 228 l 636 286 l 571 351 z "},"‹":{"ha":422,"x_min":60,"x_max":361,"o":"m 361 708 l 288 472 l 361 219 l 165 219 l 60 472 l 165 708 l 361 708 m 275 643 l 206 643 l 129 472 l 206 285 l 275 285 l 219 472 l 275 643 z "},"›":{"ha":424,"x_min":60,"x_max":363,"o":"m 257 707 l 363 457 l 257 218 l 60 218 l 132 457 l 60 707 l 257 707 m 214 643 l 146 643 l 200 457 l 146 282 l 218 282 l 294 457 l 214 643 z "},"":{"ha":1343,"x_min":74,"x_max":1268,"o":"m 767 926 l 767 619 l 518 619 l 518 685 l 414 685 l 414 568 l 621 568 l 621 333 l 414 333 l 414 243 l 476 243 l 476 0 l 74 0 l 74 243 l 138 243 l 138 685 l 74 685 l 74 926 l 767 926 m 688 847 l 156 847 l 156 763 l 219 763 l 219 163 l 156 163 l 156 81 l 394 81 l 394 163 l 331 163 l 331 413 l 540 413 l 540 489 l 331 489 l 331 763 l 600 763 l 600 699 l 688 699 l 688 847 m 1268 926 l 1268 685 l 1204 685 l 1204 243 l 1268 243 l 1268 0 l 864 0 l 864 243 l 928 243 l 928 685 l 864 685 l 864 926 l 1268 926 m 1186 847 l 947 847 l 947 763 l 1010 763 l 1010 163 l 947 163 l 947 81 l 1186 81 l 1186 163 l 1122 163 l 1122 763 l 1186 763 l 1186 847 z "},"":{"ha":1590,"x_min":74,"x_max":1553,"o":"m 767 926 l 767 619 l 518 619 l 518 685 l 414 685 l 414 568 l 621 568 l 621 333 l 414 333 l 414 243 l 476 243 l 476 0 l 74 0 l 74 243 l 138 243 l 138 685 l 74 685 l 74 926 l 767 926 m 688 847 l 156 847 l 156 763 l 219 763 l 219 163 l 156 163 l 156 81 l 394 81 l 394 163 l 331 163 l 331 413 l 540 413 l 540 489 l 331 489 l 331 763 l 600 763 l 600 699 l 688 699 l 688 847 m 1279 926 l 1279 685 l 1203 685 l 1203 243 l 1306 243 l 1306 392 l 1553 392 l 1553 0 l 864 0 l 864 243 l 928 243 l 928 685 l 864 685 l 864 926 l 1279 926 m 1197 847 l 947 847 l 947 763 l 1011 763 l 1011 163 l 947 163 l 947 81 l 1471 81 l 1471 313 l 1388 313 l 1388 163 l 1121 163 l 1121 763 l 1197 763 l 1197 847 z "},"‡":{"ha":778,"x_min":101,"x_max":675,"o":"m 257 542 l 101 542 l 101 786 l 257 786 l 257 997 l 519 997 l 519 786 l 675 786 l 675 542 l 519 542 l 519 403 l 675 403 l 675 158 l 519 158 l 519 -72 l 257 -72 l 257 158 l 101 158 l 101 403 l 257 403 l 257 542 m 338 622 l 338 322 l 182 322 l 182 239 l 338 239 l 338 8 l 439 8 l 439 239 l 594 239 l 594 322 l 439 322 l 439 622 l 594 622 l 594 706 l 439 706 l 439 917 l 338 917 l 338 706 l 182 706 l 182 622 l 338 622 z "},"·":{"ha":333,"x_min":0,"x_max":333,"o":"m 333 635 l 333 318 l 0 318 l 0 635 l 333 635 m 261 569 l 76 569 l 76 385 l 261 385 l 261 569 z "},"‚":{"ha":340,"x_min":69,"x_max":300,"o":"m 300 142 l 213 -179 l 69 -179 l 69 142 l 300 142 m 219 81 l 129 81 l 129 -118 l 167 -118 l 219 81 z "},"„":{"ha":611,"x_min":69,"x_max":569,"o":"m 569 142 l 481 -176 l 338 -176 l 338 142 l 569 142 m 489 82 l 397 82 l 397 -117 l 435 -117 l 489 82 m 300 142 l 213 -176 l 69 -176 l 69 142 l 300 142 m 221 82 l 129 82 l 129 -117 l 165 -117 l 221 82 z "},"‰":{"ha":1576,"x_min":60,"x_max":1524,"o":"m 935 307 l 935 147 l 894 108 l 815 108 l 778 147 l 778 313 l 815 349 l 894 349 l 935 307 m 874 294 l 838 294 l 838 163 l 874 163 l 874 294 m 1054 344 l 1054 108 l 943 0 l 765 0 l 658 108 l 658 353 l 765 457 l 943 457 l 1054 344 m 981 321 l 917 386 l 789 386 l 732 329 l 732 136 l 796 71 l 917 71 l 981 132 l 981 321 m 1026 926 l 317 0 l 85 0 l 794 926 l 1026 926 m 893 868 l 833 868 l 219 65 l 279 65 l 893 868 m 335 785 l 335 615 l 300 581 l 211 581 l 178 615 l 178 785 l 217 821 l 300 821 l 335 785 m 275 763 l 239 763 l 239 636 l 275 636 l 275 763 m 456 821 l 456 581 l 350 472 l 169 472 l 60 581 l 60 821 l 169 926 l 350 926 l 456 821 m 383 797 l 322 858 l 196 858 l 133 797 l 133 607 l 196 543 l 322 543 l 383 603 l 383 797 m 1404 307 l 1404 147 l 1364 108 l 1285 108 l 1247 147 l 1247 313 l 1285 349 l 1364 349 l 1404 307 m 1343 294 l 1307 294 l 1307 163 l 1343 163 l 1343 294 m 1524 344 l 1524 108 l 1413 0 l 1235 0 l 1128 108 l 1128 353 l 1235 457 l 1413 457 l 1524 344 m 1450 321 l 1386 386 l 1258 386 l 1201 329 l 1201 136 l 1265 71 l 1386 71 l 1450 132 l 1450 321 z "},"Â":{"ha":886,"x_min":14,"x_max":872,"o":"m 449 763 l 556 418 l 321 418 l 433 763 l 449 763 m 440 576 l 408 481 l 471 481 l 440 576 m 579 926 l 789 243 l 872 243 l 872 0 l 483 0 l 483 233 l 543 233 l 526 286 l 350 286 l 333 233 l 390 233 l 390 0 l 14 0 l 14 243 l 90 243 l 317 926 l 579 926 m 517 847 l 375 847 l 150 163 l 97 163 l 97 81 l 304 81 l 304 163 l 236 163 l 296 346 l 579 346 l 636 163 l 571 163 l 571 81 l 789 81 l 789 163 l 732 163 l 517 847 m 503 1229 l 657 983 l 486 983 l 440 1025 l 399 983 l 229 983 l 382 1229 l 503 1229 m 467 1169 l 419 1169 l 335 1038 l 376 1038 l 440 1101 l 508 1038 l 550 1038 l 467 1169 z "},"Ê":{"ha":835,"x_min":74,"x_max":783,"o":"m 783 926 l 783 629 l 535 629 l 535 685 l 415 685 l 415 586 l 635 586 l 635 350 l 415 350 l 415 243 l 535 243 l 535 310 l 783 310 l 783 0 l 74 0 l 74 243 l 138 243 l 138 685 l 74 685 l 74 926 l 783 926 m 700 847 l 157 847 l 157 763 l 221 763 l 221 163 l 157 163 l 157 81 l 700 81 l 700 228 l 617 228 l 617 163 l 331 163 l 331 432 l 553 432 l 553 507 l 331 507 l 331 763 l 617 763 l 617 708 l 700 708 l 700 847 m 486 1229 l 640 983 l 469 983 l 424 1025 l 382 983 l 213 983 l 365 1229 l 486 1229 m 450 1169 l 403 1169 l 318 1038 l 360 1038 l 424 1101 l 492 1038 l 533 1038 l 450 1169 z "},"Á":{"ha":886,"x_min":14,"x_max":872,"o":"m 449 763 l 556 418 l 321 418 l 433 763 l 449 763 m 440 576 l 408 481 l 471 481 l 440 576 m 579 926 l 789 243 l 872 243 l 872 0 l 483 0 l 483 233 l 543 233 l 526 286 l 350 286 l 333 233 l 390 233 l 390 0 l 14 0 l 14 243 l 90 243 l 317 926 l 579 926 m 517 847 l 375 847 l 150 163 l 97 163 l 97 81 l 304 81 l 304 163 l 236 163 l 296 346 l 579 346 l 636 163 l 571 163 l 571 81 l 789 81 l 789 163 l 732 163 l 517 847 m 389 1229 l 596 1229 l 496 982 l 346 982 l 389 1229 m 439 1164 l 418 1046 l 456 1046 l 503 1164 l 439 1164 z "},"Ë":{"ha":835,"x_min":74,"x_max":783,"o":"m 783 926 l 783 629 l 535 629 l 535 685 l 415 685 l 415 586 l 635 586 l 635 350 l 415 350 l 415 243 l 535 243 l 535 310 l 783 310 l 783 0 l 74 0 l 74 243 l 138 243 l 138 685 l 74 685 l 74 926 l 783 926 m 700 847 l 157 847 l 157 763 l 221 763 l 221 163 l 157 163 l 157 81 l 700 81 l 700 228 l 617 228 l 617 163 l 331 163 l 331 432 l 553 432 l 553 507 l 331 507 l 331 763 l 617 763 l 617 708 l 700 708 l 700 847 m 625 1139 l 625 1044 l 589 1008 l 494 1008 l 460 1044 l 460 1139 l 494 1176 l 589 1176 l 625 1139 m 571 1119 l 514 1119 l 514 1065 l 571 1065 l 571 1119 m 396 1139 l 396 1044 l 358 1008 l 267 1008 l 229 1044 l 229 1139 l 267 1176 l 358 1176 l 396 1139 m 339 1119 l 285 1119 l 285 1065 l 339 1065 l 339 1119 z "},"È":{"ha":835,"x_min":74,"x_max":783,"o":"m 783 926 l 783 629 l 535 629 l 535 685 l 415 685 l 415 586 l 635 586 l 635 350 l 415 350 l 415 243 l 535 243 l 535 310 l 783 310 l 783 0 l 74 0 l 74 243 l 138 243 l 138 685 l 74 685 l 74 926 l 783 926 m 700 847 l 157 847 l 157 763 l 221 763 l 221 163 l 157 163 l 157 81 l 700 81 l 700 228 l 617 228 l 617 163 l 331 163 l 331 432 l 553 432 l 553 507 l 331 507 l 331 763 l 617 763 l 617 708 l 700 708 l 700 847 m 476 1229 l 519 982 l 369 982 l 269 1229 l 476 1229 m 425 1164 l 363 1164 l 410 1046 l 447 1046 l 425 1164 z "},"Í":{"ha":553,"x_min":74,"x_max":478,"o":"m 478 926 l 478 685 l 414 685 l 414 243 l 478 243 l 478 0 l 74 0 l 74 243 l 138 243 l 138 685 l 74 685 l 74 926 l 478 926 m 396 847 l 157 847 l 157 763 l 219 763 l 219 163 l 157 163 l 157 81 l 396 81 l 396 163 l 332 163 l 332 763 l 396 763 l 396 847 m 222 1229 l 429 1229 l 329 982 l 179 982 l 222 1229 m 272 1164 l 251 1046 l 289 1046 l 336 1164 l 272 1164 z "},"Î":{"ha":553,"x_min":63,"x_max":490,"o":"m 478 926 l 478 685 l 414 685 l 414 243 l 478 243 l 478 0 l 74 0 l 74 243 l 138 243 l 138 685 l 74 685 l 74 926 l 478 926 m 396 847 l 157 847 l 157 763 l 219 763 l 219 163 l 157 163 l 157 81 l 396 81 l 396 163 l 332 163 l 332 763 l 396 763 l 396 847 m 336 1229 l 490 983 l 319 983 l 274 1025 l 232 983 l 63 983 l 215 1229 l 336 1229 m 300 1169 l 253 1169 l 168 1038 l 210 1038 l 274 1101 l 342 1038 l 383 1038 l 300 1169 z "},"Ï":{"ha":553,"x_min":74,"x_max":478,"o":"m 478 926 l 478 685 l 414 685 l 414 243 l 478 243 l 478 0 l 74 0 l 74 243 l 138 243 l 138 685 l 74 685 l 74 926 l 478 926 m 396 847 l 157 847 l 157 763 l 219 763 l 219 163 l 157 163 l 157 81 l 396 81 l 396 163 l 332 163 l 332 763 l 396 763 l 396 847 m 464 1139 l 464 1044 l 428 1008 l 335 1008 l 300 1044 l 300 1139 l 335 1176 l 428 1176 l 464 1139 m 410 1119 l 354 1119 l 354 1065 l 410 1065 l 410 1119 m 254 1139 l 254 1044 l 217 1008 l 125 1008 l 88 1044 l 88 1139 l 125 1176 l 217 1176 l 254 1139 m 197 1119 l 143 1119 l 143 1065 l 197 1065 l 197 1119 z "},"Ì":{"ha":553,"x_min":74,"x_max":478,"o":"m 478 926 l 478 685 l 414 685 l 414 243 l 478 243 l 478 0 l 74 0 l 74 243 l 138 243 l 138 685 l 74 685 l 74 926 l 478 926 m 396 847 l 157 847 l 157 763 l 219 763 l 219 163 l 157 163 l 157 81 l 396 81 l 396 163 l 332 163 l 332 763 l 396 763 l 396 847 m 325 1229 l 368 982 l 218 982 l 118 1229 l 325 1229 m 274 1164 l 211 1164 l 258 1046 l 296 1046 l 274 1164 z "},"Ó":{"ha":776,"x_min":51,"x_max":726,"o":"m 532 708 l 532 218 l 478 163 l 294 163 l 244 218 l 244 708 l 300 763 l 478 763 l 532 708 m 450 685 l 325 685 l 325 243 l 450 243 l 450 685 m 726 763 l 726 163 l 563 0 l 211 0 l 51 163 l 51 767 l 215 926 l 563 926 l 726 763 m 643 729 l 525 847 l 254 847 l 132 729 l 132 200 l 244 81 l 525 81 l 643 196 l 643 729 m 335 1229 l 542 1229 l 442 982 l 292 982 l 335 1229 m 385 1164 l 364 1046 l 401 1046 l 449 1164 l 385 1164 z "},"Ô":{"ha":776,"x_min":51,"x_max":726,"o":"m 532 708 l 532 218 l 478 163 l 294 163 l 244 218 l 244 708 l 300 763 l 478 763 l 532 708 m 450 685 l 325 685 l 325 243 l 450 243 l 450 685 m 726 763 l 726 163 l 563 0 l 211 0 l 51 163 l 51 767 l 215 926 l 563 926 l 726 763 m 643 729 l 525 847 l 254 847 l 132 729 l 132 200 l 244 81 l 525 81 l 643 196 l 643 729 m 449 1229 l 603 983 l 432 983 l 386 1025 l 344 983 l 175 983 l 328 1229 l 449 1229 m 413 1169 l 365 1169 l 281 1038 l 322 1038 l 386 1101 l 454 1038 l 496 1038 l 413 1169 z "},"":{"ha":926,"x_min":46,"x_max":893,"o":"m 668 960 l 668 946 q 606 788 668 856 q 461 719 543 719 q 517 883 461 819 q 668 960 572 947 m 867 635 q 781 543 807 589 q 754 442 754 497 q 790 317 754 371 q 893 235 826 263 q 777 33 839 103 q 654 -37 715 -37 q 604 -26 632 -37 q 555 -5 576 -14 q 493 4 533 4 q 437 -1 451 4 q 381 -22 422 -6 q 315 -39 339 -39 q 135 115 224 -39 q 46 426 46 269 q 118 646 46 561 q 306 731 190 731 q 406 710 353 731 q 478 689 460 689 q 546 706 503 689 q 614 728 589 722 q 671 733 639 733 q 867 635 792 733 z "},"Ò":{"ha":776,"x_min":51,"x_max":726,"o":"m 532 708 l 532 218 l 478 163 l 294 163 l 244 218 l 244 708 l 300 763 l 478 763 l 532 708 m 450 685 l 325 685 l 325 243 l 450 243 l 450 685 m 726 763 l 726 163 l 563 0 l 211 0 l 51 163 l 51 767 l 215 926 l 563 926 l 726 763 m 643 729 l 525 847 l 254 847 l 132 729 l 132 200 l 244 81 l 525 81 l 643 196 l 643 729 m 439 1229 l 482 982 l 332 982 l 232 1229 l 439 1229 m 388 1164 l 325 1164 l 372 1046 l 410 1046 l 388 1164 z "},"Ú":{"ha":903,"x_min":46,"x_max":856,"o":"m 856 926 l 856 685 l 782 685 l 782 163 l 619 0 l 279 0 l 118 163 l 118 685 l 46 685 l 46 926 l 432 926 l 432 693 l 396 693 l 396 243 l 507 243 l 507 693 l 471 693 l 471 926 l 856 926 m 774 847 l 544 847 l 544 763 l 589 763 l 589 215 l 536 163 l 364 163 l 314 215 l 314 763 l 358 763 l 358 847 l 129 847 l 129 763 l 201 763 l 201 197 l 314 81 l 583 81 l 700 192 l 700 763 l 774 763 l 774 847 m 397 1229 l 604 1229 l 504 982 l 354 982 l 397 1229 m 447 1164 l 426 1046 l 464 1046 l 511 1164 l 447 1164 z "},"Û":{"ha":903,"x_min":46,"x_max":856,"o":"m 856 926 l 856 685 l 782 685 l 782 163 l 619 0 l 279 0 l 118 163 l 118 685 l 46 685 l 46 926 l 432 926 l 432 693 l 396 693 l 396 243 l 507 243 l 507 693 l 471 693 l 471 926 l 856 926 m 774 847 l 544 847 l 544 763 l 589 763 l 589 215 l 536 163 l 364 163 l 314 215 l 314 763 l 358 763 l 358 847 l 129 847 l 129 763 l 201 763 l 201 197 l 314 81 l 583 81 l 700 192 l 700 763 l 774 763 l 774 847 m 511 1229 l 665 983 l 494 983 l 449 1025 l 407 983 l 238 983 l 390 1229 l 511 1229 m 475 1169 l 428 1169 l 343 1038 l 385 1038 l 449 1101 l 517 1038 l 558 1038 l 475 1169 z "},"Ù":{"ha":903,"x_min":46,"x_max":856,"o":"m 856 926 l 856 685 l 782 685 l 782 163 l 619 0 l 279 0 l 118 163 l 118 685 l 46 685 l 46 926 l 432 926 l 432 693 l 396 693 l 396 243 l 507 243 l 507 693 l 471 693 l 471 926 l 856 926 m 774 847 l 544 847 l 544 763 l 589 763 l 589 215 l 536 163 l 364 163 l 314 215 l 314 763 l 358 763 l 358 847 l 129 847 l 129 763 l 201 763 l 201 197 l 314 81 l 583 81 l 700 192 l 700 763 l 774 763 l 774 847 m 501 1229 l 544 982 l 394 982 l 294 1229 l 501 1229 m 450 1164 l 388 1164 l 435 1046 l 472 1046 l 450 1164 z "},"ı":{"ha":553,"x_min":74,"x_max":478,"o":"m 478 926 l 478 685 l 414 685 l 414 243 l 478 243 l 478 0 l 74 0 l 74 243 l 138 243 l 138 685 l 74 685 l 74 926 l 478 926 m 396 847 l 157 847 l 157 763 l 219 763 l 219 163 l 157 163 l 157 81 l 396 81 l 396 163 l 332 163 l 332 763 l 396 763 l 396 847 z "},"ˆ":{"ha":694,"x_min":133,"x_max":561,"o":"m 407 1229 l 561 983 l 390 983 l 344 1025 l 303 983 l 133 983 l 286 1229 l 407 1229 m 371 1169 l 324 1169 l 239 1038 l 281 1038 l 344 1101 l 413 1038 l 454 1038 l 371 1169 z "},"˜":{"ha":694,"x_min":150,"x_max":544,"o":"m 544 1218 l 544 1067 l 483 1006 l 307 1006 l 307 968 l 150 968 l 150 1113 l 218 1181 l 399 1181 l 399 1218 l 544 1218 m 489 1164 l 444 1164 l 444 1118 l 240 1118 l 213 1090 l 213 1025 l 260 1025 l 260 1071 l 464 1071 l 489 1096 l 489 1164 z "},"¯":{"ha":694,"x_min":126,"x_max":567,"o":"m 567 1182 l 567 1004 l 126 1004 l 126 1182 l 567 1182 m 511 1117 l 182 1117 l 182 1069 l 511 1069 l 511 1117 z "},"˘":{"ha":694,"x_min":140,"x_max":553,"o":"m 553 1208 l 553 1057 l 492 996 l 201 996 l 140 1057 l 140 1208 l 286 1208 l 286 1171 l 407 1171 l 407 1208 l 553 1208 m 497 1154 l 453 1154 l 453 1108 l 240 1108 l 240 1154 l 196 1154 l 196 1086 l 221 1061 l 472 1061 l 497 1086 l 497 1154 z "},"˙":{"ha":694,"x_min":264,"x_max":431,"o":"m 431 1139 l 431 1044 l 393 1008 l 301 1008 l 264 1044 l 264 1139 l 301 1176 l 393 1176 l 431 1139 m 374 1119 l 319 1119 l 319 1065 l 374 1065 l 374 1119 z "},"˚":{"ha":694,"x_min":200,"x_max":493,"o":"m 404 1157 l 404 1097 l 379 1071 l 315 1071 l 290 1097 l 290 1161 l 315 1185 l 375 1185 l 404 1157 m 367 1147 l 329 1147 l 329 1110 l 367 1110 l 367 1147 m 493 1201 l 493 1054 l 419 982 l 272 982 l 200 1054 l 200 1201 l 272 1274 l 419 1274 l 493 1201 m 444 1181 l 400 1225 l 294 1225 l 251 1181 l 251 1075 l 294 1032 l 400 1032 l 444 1075 l 444 1181 z "},"¸":{"ha":694,"x_min":207,"x_max":440,"o":"m 440 0 l 440 -278 l 207 -278 l 278 0 l 342 0 l 288 -214 l 376 -214 l 376 0 l 440 0 z "},"ʺ":{"ha":694,"x_min":129,"x_max":657,"o":"m 172 1229 l 379 1229 l 279 982 l 129 982 l 172 1229 m 222 1164 l 201 1046 l 239 1046 l 286 1164 l 222 1164 m 450 1229 l 657 1229 l 557 982 l 407 982 l 450 1229 m 500 1164 l 479 1046 l 517 1046 l 564 1164 l 500 1164 z "},"˛":{"ha":694,"x_min":439,"x_max":714,"o":"m 710 -101 l 710 -276 l 532 -276 l 439 -222 l 439 -44 l 479 0 l 565 0 l 503 -69 l 503 -186 l 549 -212 l 646 -212 l 646 -165 l 558 -165 l 558 -81 l 629 0 l 714 0 l 625 -101 l 710 -101 z "},"ˇ":{"ha":694,"x_min":133,"x_max":561,"o":"m 407 982 l 286 982 l 133 1229 l 303 1229 l 344 1188 l 390 1229 l 561 1229 l 407 982 m 371 1042 l 454 1175 l 413 1175 l 344 1110 l 281 1175 l 239 1175 l 324 1042 l 371 1042 z "},"Ł":{"ha":800,"x_min":74,"x_max":763,"o":"m 489 926 l 489 685 l 413 685 l 413 625 l 533 667 l 533 433 l 413 392 l 413 243 l 515 243 l 515 372 l 763 372 l 763 0 l 74 0 l 74 243 l 138 243 l 138 301 l 74 281 l 74 513 l 138 533 l 138 685 l 74 685 l 74 926 l 489 926 m 407 847 l 157 847 l 157 763 l 221 763 l 221 482 l 157 461 l 157 390 l 221 410 l 221 163 l 157 163 l 157 81 l 681 81 l 681 293 l 597 293 l 597 163 l 331 163 l 331 446 l 450 483 l 450 556 l 331 518 l 331 763 l 407 763 l 407 847 z "},"ł":{"ha":800,"x_min":74,"x_max":763,"o":"m 489 926 l 489 685 l 413 685 l 413 625 l 533 667 l 533 433 l 413 392 l 413 243 l 515 243 l 515 372 l 763 372 l 763 0 l 74 0 l 74 243 l 138 243 l 138 301 l 74 281 l 74 513 l 138 533 l 138 685 l 74 685 l 74 926 l 489 926 m 407 847 l 157 847 l 157 763 l 221 763 l 221 482 l 157 461 l 157 390 l 221 410 l 221 163 l 157 163 l 157 81 l 681 81 l 681 293 l 597 293 l 597 163 l 331 163 l 331 446 l 450 483 l 450 556 l 331 518 l 331 763 l 407 763 l 407 847 z "},"Š":{"ha":764,"x_min":51,"x_max":714,"o":"m 714 474 l 714 163 l 549 0 l 213 0 l 58 157 l 58 326 l 326 326 l 326 243 l 439 243 l 439 375 l 175 375 l 51 503 l 51 768 l 213 926 l 557 926 l 703 778 l 703 625 l 446 625 l 446 685 l 326 685 l 326 596 l 596 596 l 714 474 m 633 440 l 551 522 l 276 522 l 244 554 l 244 711 l 297 763 l 472 763 l 521 711 l 521 697 l 633 697 l 633 732 l 521 847 l 251 847 l 135 732 l 135 535 l 219 449 l 492 449 l 521 417 l 521 217 l 465 163 l 297 163 l 244 217 l 244 256 l 135 256 l 135 199 l 251 81 l 510 81 l 633 199 l 633 440 m 443 982 l 322 982 l 169 1229 l 339 1229 l 381 1188 l 426 1229 l 597 1229 l 443 982 m 407 1042 l 490 1175 l 449 1175 l 381 1110 l 317 1175 l 275 1175 l 360 1042 l 407 1042 z "},"š":{"ha":764,"x_min":51,"x_max":714,"o":"m 714 474 l 714 163 l 549 0 l 213 0 l 58 157 l 58 326 l 326 326 l 326 243 l 439 243 l 439 375 l 175 375 l 51 503 l 51 768 l 213 926 l 557 926 l 703 778 l 703 625 l 446 625 l 446 685 l 326 685 l 326 596 l 596 596 l 714 474 m 633 440 l 551 522 l 276 522 l 244 554 l 244 711 l 297 763 l 472 763 l 521 711 l 521 697 l 633 697 l 633 732 l 521 847 l 251 847 l 135 732 l 135 535 l 219 449 l 492 449 l 521 417 l 521 217 l 465 163 l 297 163 l 244 217 l 244 256 l 135 256 l 135 199 l 251 81 l 510 81 l 633 199 l 633 440 m 443 982 l 322 982 l 169 1229 l 339 1229 l 381 1188 l 426 1229 l 597 1229 l 443 982 m 407 1042 l 490 1175 l 449 1175 l 381 1110 l 317 1175 l 275 1175 l 360 1042 l 407 1042 z "},"Ž":{"ha":775,"x_min":18,"x_max":756,"o":"m 728 926 l 728 693 l 354 236 l 514 236 l 514 363 l 756 363 l 756 0 l 18 0 l 18 249 l 382 693 l 285 693 l 285 638 l 57 638 l 57 926 l 728 926 m 646 847 l 138 847 l 138 718 l 217 718 l 217 763 l 549 763 l 100 215 l 100 81 l 672 81 l 672 293 l 590 293 l 590 163 l 189 163 l 646 724 l 646 847 m 465 982 l 344 982 l 192 1229 l 361 1229 l 403 1188 l 449 1229 l 619 1229 l 465 982 m 429 1042 l 513 1175 l 471 1175 l 403 1110 l 339 1175 l 297 1175 l 382 1042 l 429 1042 z "},"ſ":{"ha":775,"x_min":18,"x_max":756,"o":"m 728 926 l 728 693 l 354 236 l 514 236 l 514 363 l 756 363 l 756 0 l 18 0 l 18 249 l 382 693 l 285 693 l 285 638 l 57 638 l 57 926 l 728 926 m 646 847 l 138 847 l 138 718 l 217 718 l 217 763 l 549 763 l 100 215 l 100 81 l 672 81 l 672 293 l 590 293 l 590 163 l 189 163 l 646 724 l 646 847 m 465 982 l 344 982 l 192 1229 l 361 1229 l 403 1188 l 449 1229 l 619 1229 l 465 982 m 429 1042 l 513 1175 l 471 1175 l 403 1110 l 339 1175 l 297 1175 l 382 1042 l 429 1042 z "},"Ð":{"ha":853,"x_min":65,"x_max":803,"o":"m 608 706 l 608 214 l 557 163 l 332 163 l 332 431 l 397 431 l 397 503 l 332 503 l 332 763 l 553 763 l 608 706 m 525 685 l 415 685 l 415 582 l 481 582 l 481 350 l 415 350 l 415 243 l 525 243 l 525 685 m 803 763 l 803 163 l 642 0 l 75 0 l 75 243 l 139 243 l 139 350 l 65 350 l 65 582 l 139 582 l 139 685 l 75 685 l 75 926 l 642 926 l 803 763 m 721 729 l 606 847 l 167 847 l 167 763 l 221 763 l 221 503 l 147 503 l 147 431 l 221 431 l 221 163 l 167 163 l 167 81 l 606 81 l 721 193 l 721 729 z "},"ð":{"ha":853,"x_min":65,"x_max":803,"o":"m 608 706 l 608 214 l 557 163 l 332 163 l 332 431 l 397 431 l 397 503 l 332 503 l 332 763 l 553 763 l 608 706 m 525 685 l 415 685 l 415 582 l 481 582 l 481 350 l 415 350 l 415 243 l 525 243 l 525 685 m 803 763 l 803 163 l 642 0 l 75 0 l 75 243 l 139 243 l 139 350 l 65 350 l 65 582 l 139 582 l 139 685 l 75 685 l 75 926 l 642 926 l 803 763 m 721 729 l 606 847 l 167 847 l 167 763 l 221 763 l 221 503 l 147 503 l 147 431 l 221 431 l 221 163 l 167 163 l 167 81 l 606 81 l 721 193 l 721 729 z "},"Ý":{"ha":810,"x_min":10,"x_max":801,"o":"m 801 926 l 801 685 l 719 685 l 543 350 l 543 243 l 608 243 l 608 0 l 203 0 l 203 243 l 268 243 l 268 350 l 92 685 l 10 685 l 10 926 l 379 926 l 379 699 l 351 699 l 408 592 l 465 699 l 438 699 l 438 926 l 801 926 m 719 847 l 517 847 l 517 763 l 563 763 l 407 465 l 247 763 l 296 763 l 296 847 l 92 847 l 92 763 l 142 763 l 351 372 l 351 163 l 286 163 l 286 81 l 526 81 l 526 163 l 461 163 l 461 372 l 668 763 l 719 763 l 719 847 m 351 1229 l 558 1229 l 458 982 l 308 982 l 351 1229 m 401 1164 l 381 1046 l 418 1046 l 465 1164 l 401 1164 z "},"ý":{"ha":810,"x_min":10,"x_max":801,"o":"m 801 926 l 801 685 l 719 685 l 543 350 l 543 243 l 608 243 l 608 0 l 203 0 l 203 243 l 268 243 l 268 350 l 92 685 l 10 685 l 10 926 l 379 926 l 379 699 l 351 699 l 408 592 l 465 699 l 438 699 l 438 926 l 801 926 m 719 847 l 517 847 l 517 763 l 563 763 l 407 465 l 247 763 l 296 763 l 296 847 l 92 847 l 92 763 l 142 763 l 351 372 l 351 163 l 286 163 l 286 81 l 526 81 l 526 163 l 461 163 l 461 372 l 668 763 l 719 763 l 719 847 m 351 1229 l 558 1229 l 458 982 l 308 982 l 351 1229 m 401 1164 l 381 1046 l 418 1046 l 465 1164 l 401 1164 z "},"Þ":{"ha":825,"x_min":74,"x_max":792,"o":"m 608 579 l 608 378 l 557 328 l 332 328 l 332 632 l 557 632 l 608 579 m 526 554 l 414 554 l 414 410 l 526 410 l 526 554 m 414 796 l 635 796 l 792 632 l 792 321 l 629 163 l 478 163 l 478 0 l 74 0 l 74 243 l 136 243 l 136 685 l 74 685 l 74 926 l 414 926 l 414 796 m 394 81 l 394 163 l 332 163 l 332 242 l 593 242 l 710 357 l 710 599 l 599 717 l 332 717 l 332 847 l 158 847 l 158 763 l 221 763 l 221 163 l 158 163 l 158 81 l 394 81 z "},"þ":{"ha":825,"x_min":74,"x_max":792,"o":"m 608 579 l 608 378 l 557 328 l 332 328 l 332 632 l 557 632 l 608 579 m 526 554 l 414 554 l 414 410 l 526 410 l 526 554 m 414 796 l 635 796 l 792 632 l 792 321 l 629 163 l 478 163 l 478 0 l 74 0 l 74 243 l 136 243 l 136 685 l 74 685 l 74 926 l 414 926 l 414 796 m 394 81 l 394 163 l 332 163 l 332 242 l 593 242 l 710 357 l 710 599 l 599 717 l 332 717 l 332 847 l 158 847 l 158 763 l 221 763 l 221 163 l 158 163 l 158 81 l 394 81 z "},"−":{"ha":778,"x_min":49,"x_max":728,"o":"m 728 597 l 728 356 l 49 356 l 49 597 l 728 597 m 647 517 l 129 517 l 129 436 l 647 436 l 647 517 z "},"×":{"ha":778,"x_min":38,"x_max":742,"o":"m 389 647 l 571 828 l 742 657 l 560 476 l 742 296 l 571 125 l 389 306 l 208 125 l 38 296 l 218 476 l 38 657 l 208 828 l 389 647 m 389 533 l 208 714 l 151 657 l 332 476 l 151 296 l 208 239 l 389 419 l 571 239 l 628 296 l 446 476 l 628 657 l 571 714 l 389 533 z "},"¹":{"ha":508,"x_min":104,"x_max":414,"o":"m 375 926 l 375 560 l 414 560 l 414 369 l 110 369 l 110 560 l 149 560 l 149 728 l 104 728 l 104 847 l 189 926 l 375 926 m 301 853 l 218 853 l 178 815 l 178 786 l 222 786 l 222 500 l 183 500 l 183 443 l 340 443 l 340 500 l 301 500 l 301 853 z "},"²":{"ha":508,"x_min":39,"x_max":469,"o":"m 469 817 l 469 647 l 375 564 l 469 564 l 469 369 l 39 369 l 39 553 l 178 674 l 39 674 l 39 818 l 151 926 l 360 926 l 469 817 m 396 788 l 329 853 l 181 853 l 113 788 l 113 738 l 192 738 l 192 772 l 215 794 l 293 794 l 317 772 l 317 697 l 113 519 l 113 443 l 396 443 l 396 500 l 190 500 l 396 681 l 396 788 z "},"³":{"ha":508,"x_min":39,"x_max":469,"o":"m 469 817 l 469 478 l 360 369 l 149 369 l 39 478 l 39 636 l 199 636 l 199 692 l 49 692 l 49 826 l 149 926 l 361 926 l 469 817 m 396 786 l 331 853 l 179 853 l 122 796 l 122 751 l 192 751 l 192 776 l 210 794 l 294 794 l 318 772 l 318 711 l 307 700 l 265 700 l 265 643 l 306 643 l 318 632 l 318 524 l 294 501 l 214 501 l 192 524 l 192 576 l 113 576 l 113 508 l 179 443 l 331 443 l 396 508 l 396 644 l 367 672 l 396 701 l 396 786 z "},"½":{"ha":1322,"x_min":104,"x_max":1283,"o":"m 376 926 l 376 560 l 415 560 l 415 369 l 110 369 l 110 560 l 149 560 l 149 728 l 104 728 l 104 847 l 189 926 l 376 926 m 303 853 l 218 853 l 178 815 l 178 786 l 222 786 l 222 500 l 183 500 l 183 443 l 342 443 l 342 500 l 303 500 l 303 853 m 974 926 l 581 0 l 349 0 l 742 926 l 974 926 m 861 868 l 801 868 l 460 65 l 521 65 l 861 868 m 1283 446 l 1283 276 l 1189 194 l 1283 194 l 1283 0 l 853 0 l 853 183 l 993 303 l 853 303 l 853 447 l 965 556 l 1174 556 l 1283 446 m 1210 417 l 1144 482 l 996 482 l 926 417 l 926 367 l 1007 367 l 1007 401 l 1031 424 l 1108 424 l 1132 401 l 1132 326 l 926 150 l 926 74 l 1210 74 l 1210 131 l 1006 131 l 1210 310 l 1210 417 z "},"¼":{"ha":1322,"x_min":104,"x_max":1296,"o":"m 376 926 l 376 560 l 415 560 l 415 369 l 110 369 l 110 560 l 149 560 l 149 728 l 104 728 l 104 847 l 189 926 l 376 926 m 303 853 l 218 853 l 178 815 l 178 786 l 222 786 l 222 500 l 183 500 l 183 443 l 342 443 l 342 500 l 303 500 l 303 853 m 974 926 l 581 0 l 349 0 l 742 926 l 974 926 m 861 868 l 801 868 l 460 65 l 521 65 l 861 868 m 1079 414 l 1079 272 l 968 272 l 1079 414 m 1232 556 l 1232 333 l 1296 333 l 1296 144 l 1265 144 l 1265 0 l 969 0 l 969 144 l 819 144 l 819 303 l 1017 556 l 1232 556 m 1158 482 l 1053 482 l 893 278 l 893 218 l 1079 218 l 1079 133 l 1043 133 l 1043 74 l 1192 74 l 1192 133 l 1158 133 l 1158 218 l 1222 218 l 1222 269 l 1158 269 l 1158 482 z "},"¾":{"ha":1322,"x_min":39,"x_max":1296,"o":"m 471 817 l 471 478 l 361 369 l 149 369 l 39 478 l 39 636 l 199 636 l 199 692 l 49 692 l 49 826 l 149 926 l 361 926 l 471 817 m 397 786 l 331 853 l 179 853 l 122 796 l 122 751 l 192 751 l 192 776 l 210 794 l 294 794 l 318 772 l 318 711 l 307 700 l 265 700 l 265 643 l 306 643 l 318 632 l 318 524 l 294 501 l 214 501 l 192 524 l 192 576 l 113 576 l 113 508 l 179 443 l 331 443 l 397 508 l 397 644 l 368 672 l 397 701 l 397 786 m 975 926 l 582 0 l 349 0 l 742 926 l 975 926 m 861 868 l 801 868 l 460 65 l 521 65 l 861 868 m 1081 414 l 1081 272 l 969 272 l 1081 414 m 1233 556 l 1233 333 l 1296 333 l 1296 144 l 1265 144 l 1265 0 l 969 0 l 969 144 l 819 144 l 819 303 l 1017 556 l 1233 556 m 1160 482 l 1053 482 l 893 278 l 893 218 l 1081 218 l 1081 133 l 1043 133 l 1043 74 l 1192 74 l 1192 133 l 1160 133 l 1160 218 l 1222 218 l 1222 269 l 1160 269 l 1160 482 z "}}}
